<?xml version="1.0" encoding="UTF-8" standalone="no"?>
<svg
   version="1.1"
   id="Layer_1"
   x="0px"
   y="0px"
   width="255.58884"
   viewBox="0 0 255.58884 251.56494"
   enable-background="new 0 0 1280 640"
   xml:space="preserve"
   sodipodi:docname="gobra-error.svg"
   inkscape:version="1.4 (e7c3feb100, 2024-10-09)"
   height="251.56494"
   xmlns:inkscape="http://www.inkscape.org/namespaces/inkscape"
   xmlns:sodipodi="http://sodipodi.sourceforge.net/DTD/sodipodi-0.dtd"
   xmlns="http://www.w3.org/2000/svg"
   xmlns:svg="http://www.w3.org/2000/svg"><defs
   id="defs467" /><sodipodi:namedview
   id="namedview465"
   pagecolor="#ffffff"
   bordercolor="#000000"
   borderopacity="0.25"
   inkscape:showpageshadow="2"
   inkscape:pageopacity="0.0"
   inkscape:pagecheckerboard="true"
   inkscape:deskcolor="#d1d1d1"
   showgrid="false"
   inkscape:zoom="1.066356"
   inkscape:cx="187.55463"
   inkscape:cy="244.28991"
   inkscape:window-width="1296"
   inkscape:window-height="1163"
   inkscape:window-x="0"
   inkscape:window-y="0"
   inkscape:window-maximized="0"
   inkscape:current-layer="Layer_1" />







<path
   fill="#fef8f0"
   opacity="1"
   stroke="none"
   d="m 203.61479,28.034351 c -14.6135,1.99311 -22.14667,-2.20589 -25.47893,-13.75466 7.95784,-1.67279 24.09314,4.0902 28.03801,10.27254 0.31663,0.49623 -1.27474,2.2099 -2.55908,3.48212 z"
   id="path456"
   style="stroke-width:1.54448" />



<g
   id="g1375"
   style="fill:#d42121;fill-opacity:1"
   transform="translate(-541.04717,-128.02242)"><path
     fill="#eb8c03"
     opacity="1"
     stroke="none"
     d="m 565.97111,349.56048 c 1.60559,-3.2606 20.40469,-41.49519 22.07863,-44.89331 9.67358,-19.63756 28.06697,-57.11621 28.54294,-58.10292 12.16871,-25.22633 25.25836,-49.9252 42.29938,-72.28588 11.9967,-15.74172 25.33566,-30.10979 43.23333,-39.3769 21.54377,-11.15502 45.52649,-8.59309 61.8761,6.59221 9.4032,8.73349 14.50752,19.70716 15.96682,32.40621 4.7276,1.07905 8.6272,0.8887 11.807,-3.18976 0.9162,-1.1752 3.2025,-1.28212 4.8607,-1.8788 -0.6515,1.62564 -1.1746,3.32057 -2.0012,4.85168 -0.5216,0.9663 -1.4967,1.68779 -2.4813,2.7486 1.5205,1.59773 3.0334,2.90376 4.1503,4.48891 0.5084,0.72137 0.2332,1.99473 0.3135,3.0177 -1.0541,-0.007 -2.7347,0.40879 -3.0681,-0.085 -5.0239,-7.43963 -12.6479,-5.14962 -19.5216,-5.26044 -10.99469,-0.17728 -22.02313,0.46074 -32.98553,-0.1599 -19.56116,-1.10745 -34.85828,7.03987 -47.80048,20.71254 -16.47821,17.40816 -27.58562,38.26837 -37.80053,59.66638 -8.78155,18.39543 -40.23937,90.85609 -57.90382,120.77556 M 739.47412,151.26573 c 0.4563,-0.74324 1.48666,-1.8528 1.28164,-2.17409 -2.55416,-4.00285 -13.00125,-7.7342 -18.15368,-6.65112 2.15753,7.47745 7.035,10.19615 16.87204,8.82521 z"
     id="path444"
     sodipodi:nodetypes="cssssscscscsccssssccscc"
     style="fill:#d42121;fill-opacity:1" /><path
     id="path1318"
     style="fill:#d42121;fill-opacity:1;stroke-width:7.55906"
     d="m 556.33011,161.09873 c 7.29735,-5.51889 46.55418,74.12645 118.01576,104.31342 71.46157,30.18697 85.9044,43.94545 82.34415,52.37362 -1.24956,2.95807 -5.63159,18.26984 -14.60561,17.50391 -16.59486,-1.41638 -47.54528,-24.09136 -93.92567,-43.68348 -42.29071,-17.86453 -92.60544,-68.57288 -104.91067,-108.31797 -8.48777,-27.41498 10.10323,-19.93667 13.08204,-22.1895 z"
     sodipodi:nodetypes="sssssss" /></g></svg>
