<?xml version="1.0" encoding="UTF-8" standalone="no"?>
<!-- Generator: Adobe Illustrator 15.0.0, SVG Export Plug-In . SVG Version: 6.00 Build 0)  -->

<svg
   version="1.1"
   id="レイヤー_1"
   x="0px"
   y="0px"
   width="64"
   height="64"
   viewBox="0 0 64 64.000003"
   enable-background="new 0 0 401.98 559.472"
   xml:space="preserve"
   sodipodi:docname="does_not_compile.svg"
   inkscape:version="1.4 (e7c3feb100, 2024-10-09)"
   xmlns:inkscape="http://www.inkscape.org/namespaces/inkscape"
   xmlns:sodipodi="http://sodipodi.sourceforge.net/DTD/sodipodi-0.dtd"
   xmlns="http://www.w3.org/2000/svg"
   xmlns:svg="http://www.w3.org/2000/svg"><defs
   id="defs21" /><sodipodi:namedview
   id="namedview21"
   pagecolor="#ffffff"
   bordercolor="#000000"
   borderopacity="0.25"
   inkscape:showpageshadow="2"
   inkscape:pageopacity="0.0"
   inkscape:pagecheckerboard="true"
   inkscape:deskcolor="#d1d1d1"
   inkscape:zoom="9.5804274"
   inkscape:cx="36.532817"
   inkscape:cy="50.989375"
   inkscape:window-width="1575"
   inkscape:window-height="1163"
   inkscape:window-x="0"
   inkscape:window-y="0"
   inkscape:window-maximized="0"
   inkscape:current-layer="レイヤー_1" />
<path
   fill-rule="evenodd"
   clip-rule="evenodd"
   fill="#f6d2a2"
   stroke="#000000"
   stroke-width="0.610159"
   stroke-linecap="round"
   d="m 8.6162224,33.519069 c 0.088651,1.827675 1.9144706,0.982007 2.7414556,0.410648 0.78498,-0.542466 1.014499,-0.09155 1.083424,-1.162095 0.04514,-0.703641 0.126246,-1.407281 0.08633,-2.113703 -1.187044,-0.107566 -2.478171,0.175099 -3.451361,0.882102 -0.5012736,0.364234 -1.4411614,1.526795 -0.4598489,1.983048"
   id="path1" />
<path
   fill-rule="evenodd"
   clip-rule="evenodd"
   fill="#c6b198"
   stroke="#000000"
   stroke-width="0.610159"
   stroke-linecap="round"
   d="M 8.6162224,33.519069 C 8.8819437,33.420209 9.163562,33.350004 9.3438812,33.109694"
   id="path2" />
<path
   fill-rule="evenodd"
   clip-rule="evenodd"
   fill="#6ad7e5"
   stroke="#000000"
   stroke-width="0.610159"
   stroke-linecap="round"
   d="M 12.835622,11.746161 C 5.8390281,9.7786623 11.041597,0.87780881 16.660037,4.5388457 Z"
   id="path3" />
<path
   fill-rule="evenodd"
   clip-rule="evenodd"
   fill="#6ad7e5"
   stroke="#000000"
   stroke-width="0.610159"
   stroke-linecap="round"
   d="m 43.92131,3.8709452 c 5.538026,-3.88985904 10.542522,4.8863722 4.106264,7.0945288 z"
   id="path4" />
<path
   fill-rule="evenodd"
   clip-rule="evenodd"
   fill="#f6d2a2"
   stroke="#000000"
   stroke-width="0.610159"
   stroke-linecap="round"
   d="m 45.112531,56.012555 c 1.406698,0.870384 3.977929,3.502187 1.867709,4.778344 -2.027607,1.856454 -3.162434,-2.037703 -4.94207,-2.577265 0.766412,-1.040838 1.737863,-1.989892 3.074361,-2.201079 z"
   id="path5"
   style="fill:#f6d2a2;fill-opacity:1" />
<path
   fill-rule="evenodd"
   clip-rule="evenodd"
   fill="none"
   stroke="#000000"
   stroke-width="0.348106"
   stroke-linecap="round"
   d="M 46.98024,60.790783 C 46.667408,60.168717 46.562394,59.442682 46.040118,58.941292"
   id="path6" />
<path
   fill-rule="evenodd"
   clip-rule="evenodd"
   fill="#f6d2a2"
   stroke="#000000"
   stroke-width="0.610159"
   stroke-linecap="round"
   d="m 19.981322,58.986781 c -1.65107,0.255506 -2.580398,1.745057 -3.956811,2.501492 -1.297045,0.773374 -1.793213,-0.247624 -1.910061,-0.454861 -0.203294,-0.09271 -0.186237,0.08633 -0.499997,-0.229635 -1.20236,-1.897645 1.252836,-3.284732 2.531315,-4.227407 1.780681,-0.359941 2.896595,1.183795 3.835554,2.410411 z"
   id="path7" />
<path
   fill-rule="evenodd"
   clip-rule="evenodd"
   fill="none"
   stroke="#000000"
   stroke-width="0.348106"
   stroke-linecap="round"
   d="m 14.114566,61.033296 c 0.06289,-0.723249 0.636339,-1.207581 0.909486,-1.819087"
   id="path8" />
<path
   fill-rule="evenodd"
   clip-rule="evenodd"
   d="M 13.127568,9.2878319 C 12.204505,8.7995544 11.527322,8.1364113 12.091951,7.0687681 c 0.52274,-0.9883904 1.493841,-0.8810575 2.41702,-0.39278 z"
   id="path9"
   style="stroke-width:0.116036" />
<path
   fill-rule="evenodd"
   clip-rule="evenodd"
   d="M 46.569358,8.3595477 C 47.492419,7.8712702 48.169602,7.2081271 47.604974,6.1404843 47.082234,5.1520935 46.11113,5.2594264 45.187955,5.7477039 Z"
   id="path10"
   style="stroke-width:0.116036" />
<path
   fill-rule="evenodd"
   clip-rule="evenodd"
   fill="#f6d2a2"
   stroke="#000000"
   stroke-width="0.610159"
   stroke-linecap="round"
   d="m 52.923343,33.286998 c -0.08865,1.827676 -1.91447,0.982008 -2.741455,0.410649 -0.78498,-0.542469 -1.014497,-0.09155 -1.083421,-1.162095 -0.04514,-0.70364 -0.126246,-1.407281 -0.08633,-2.113706 1.18704,-0.107563 2.478167,0.175099 3.451358,0.882104 0.501159,0.364235 1.441161,1.526793 0.459847,1.983048"
   id="path11" />
<path
   fill-rule="evenodd"
   clip-rule="evenodd"
   fill="#c6b198"
   stroke="#000000"
   stroke-width="0.610159"
   stroke-linecap="round"
   d="m 52.923345,33.286998 c -0.26572,-0.09886 -0.547339,-0.169064 -0.727658,-0.409375"
   id="path12" />
<g
   id="g13"
   transform="matrix(0.11603553,0,0,0.11603553,7.3823005,-1.348797)">
	<path
   fill-rule="evenodd"
   clip-rule="evenodd"
   fill="#6ad7e5"
   stroke="#000000"
   stroke-width="3"
   stroke-linecap="round"
   d="m 195.512,13.124 c 60.365,0 116.953,8.633 146.452,66.629 26.478,65.006 17.062,135.104 21.1,203.806 3.468,58.992 11.157,127.145 -16.21,181.812 -28.79,57.514 -100.73,71.982 -160,69.863 C 140.299,533.568 84.06,518.38 57.785,475.845 26.959,425.945 41.553,351.747 43.792,296.223 46.444,230.452 25.977,164.481 47.584,100.122 69.999,33.359 130.451,18.271 195.512,13.124"
   id="path13" />
</g>
<path
   fill-rule="evenodd"
   clip-rule="evenodd"
   fill="#ffffff"
   stroke="#000000"
   stroke-width="0.591464"
   stroke-linecap="round"
   d="M 31.30523,9.5771086 C 32.562823,16.887695 44.512625,14.954775 42.796229,7.5816456 41.257134,0.96994097 30.88727,2.8000534 31.30523,9.5771086"
   id="path14" />
<path
   fill-rule="evenodd"
   clip-rule="evenodd"
   fill="#ffffff"
   stroke="#000000"
   stroke-width="0.57383"
   stroke-linecap="round"
   d="M 17.025201,10.759511 C 18.655152,17.124059 28.845046,15.494572 28.460967,9.1102977 28.000769,1.4641362 15.466844,2.9395281 17.025201,10.759511"
   id="path15" />
<path
   fill-rule="evenodd"
   clip-rule="evenodd"
   fill="#ffffff"
   stroke="#000000"
   stroke-width="0.610159"
   stroke-linecap="round"
   d="m 32.746972,18.349627 c 0.0053,0.950447 0.215943,2.017509 0.0362,3.028643 -0.24263,0.458573 -0.718607,0.507076 -1.128909,0.692385 -0.567413,-0.089 -1.044552,-0.46159 -1.272097,-0.992336 -0.145626,-1.154091 0.0543,-2.271511 0.09109,-3.426066 z"
   id="path16" />
<g
   id="g17"
   transform="matrix(0.11603553,0,0,0.11603553,7.3823005,-1.348797)">
	<ellipse
   fill-rule="evenodd"
   clip-rule="evenodd"
   cx="107.324"
   cy="95.403999"
   rx="14.829"
   ry="16.062"
   id="ellipse16" />
	<ellipse
   fill-rule="evenodd"
   clip-rule="evenodd"
   fill="#ffffff"
   cx="114.069"
   cy="99.028999"
   rx="3.4960001"
   ry="4.0819998"
   id="ellipse17" />
</g>
<g
   id="g19"
   transform="matrix(0.11603553,0,0,0.11603553,7.3823005,-1.348797)">
	<ellipse
   fill-rule="evenodd"
   clip-rule="evenodd"
   cx="231.571"
   cy="91.403999"
   rx="14.582"
   ry="16.062"
   id="ellipse18" />
	<ellipse
   fill-rule="evenodd"
   clip-rule="evenodd"
   fill="#ffffff"
   cx="238.20399"
   cy="95.028999"
   rx="3.438"
   ry="4.0819998"
   id="ellipse19" />
</g>
<path
   fill-rule="evenodd"
   clip-rule="evenodd"
   fill="#ffffff"
   stroke="#000000"
   stroke-width="0.610159"
   stroke-linecap="round"
   d="m 27.829732,18.246123 c -0.750748,1.819438 0.418658,5.457732 2.455662,2.774178 -0.145624,-1.154091 0.05431,-2.271511 0.09109,-3.426065 z"
   id="path19" />
<g
   id="g21"
   transform="matrix(0.11603553,0,0,0.11603553,7.3823005,-1.348797)">
	<path
   fill-rule="evenodd"
   clip-rule="evenodd"
   fill="#f6d2a2"
   stroke="#231f20"
   stroke-width="3"
   stroke-linecap="round"
   d="m 178.431,138.673 c -12.059,1.028 -21.916,15.366 -15.646,26.709 8.303,15.024 26.836,-1.329 38.379,0.203 13.285,0.272 24.17,14.047 34.84,2.49 11.867,-12.854 -5.109,-25.373 -18.377,-30.97 z"
   id="path20" />
	<path
   fill-rule="evenodd"
   clip-rule="evenodd"
   d="m 176.913,138.045 c -0.893,-20.891 38.938,-23.503 43.642,-6.016 4.692,17.446 -41.681,21.498 -43.642,6.016 -1.565,-12.363 0,0 0,0 z"
   id="path21" />
</g>
<text
   xml:space="preserve"
   style="font-size:31.3771px;font-family:monospace;-inkscape-font-specification:monospace;text-align:start;writing-mode:lr-tb;direction:ltr;text-anchor:start;fill:#000000;fill-opacity:0;stroke:#000000;stroke-width:0.348106;stroke-dasharray:none"
   x="16.502779"
   y="55.012379"
   id="text21"
   transform="scale(1.153399,0.86700265)"><tspan
     sodipodi:role="line"
     id="tspan21"
     x="16.502779"
     y="55.012379"
     style="fill:#000000;fill-opacity:0;stroke:#000000;stroke-width:0.348106;stroke-dasharray:none" /></text><text
   xml:space="preserve"
   style="font-size:31.4873px;font-family:monospace;-inkscape-font-specification:monospace;text-align:start;writing-mode:lr-tb;direction:ltr;text-anchor:start;fill:#000000;fill-opacity:1;stroke-width:0.203386"
   x="20.588928"
   y="51.452045"
   id="text2"><tspan
     sodipodi:role="line"
     id="tspan2"
     x="20.588928"
     y="51.452045"
     style="stroke-width:0.203386">?</tspan></text><path
   id="rect1"
   style="fill:#6ad7e5"
   d="m 27.76494,70.978043 h 7.619702 v 7.202183 H 27.76494 Z" /></svg>
