<?xml version="1.0" encoding="UTF-8" standalone="no"?>
<svg
   version="1.1"
   id="Layer_1"
   x="0px"
   y="0px"
   width="341.88434"
   viewBox="0 0 341.88434 281.15573"
   enable-background="new 0 0 1280 640"
   xml:space="preserve"
   sodipodi:docname="gobra-infinity.svg"
   inkscape:version="1.4 (e7c3feb100, 2024-10-09)"
   height="281.15573"
   xmlns:inkscape="http://www.inkscape.org/namespaces/inkscape"
   xmlns:sodipodi="http://sodipodi.sourceforge.net/DTD/sodipodi-0.dtd"
   xmlns="http://www.w3.org/2000/svg"
   xmlns:svg="http://www.w3.org/2000/svg"><defs
   id="defs467" /><sodipodi:namedview
   id="namedview465"
   pagecolor="#ffffff"
   bordercolor="#000000"
   borderopacity="0.25"
   inkscape:showpageshadow="2"
   inkscape:pageopacity="0.0"
   inkscape:pagecheckerboard="true"
   inkscape:deskcolor="#d1d1d1"
   showgrid="false"
   inkscape:zoom="1.2151316"
   inkscape:cx="223.84407"
   inkscape:cy="160.88792"
   inkscape:window-width="1296"
   inkscape:window-height="1163"
   inkscape:window-x="0"
   inkscape:window-y="0"
   inkscape:window-maximized="0"
   inkscape:current-layer="Layer_1" />

<path
   fill="#fef8f0"
   opacity="1"
   stroke="none"
   d="m 302.84539,30.382745 c -24.45241,3.33499 -37.05746,-3.69106 -42.63325,-23.01534 13.31564,-2.79905 40.31448,6.84404 46.91533,17.18877 0.52981,0.83032 -2.13299,3.6978 -4.28208,5.82657 z"
   id="path456"
   style="stroke-width:2.58434" /><path
   fill="#eb8c03"
   opacity="1"
   stroke="none"
   d="M 24.269192,222.54391 C 1.5452419,200.88885 -4.4917681,174.31182 3.1219719,144.75854 10.352992,116.69081 29.963762,99.995975 57.356042,92.866195 c 26.10181,-6.79387 51.861478,-5.09746 76.346038,7.271505 10.29349,5.2 18.61811,12.78006 25.90146,22.53454 0.9014,-1.65657 1.62732,-2.86556 2.23746,-4.13041 12.16876,-25.226305 25.25836,-49.925195 42.29938,-72.285875 11.9967,-15.74172 25.33566,-30.10979 43.23333,-39.3769 21.54377,-11.15502 45.52649,-8.59309 61.8761,6.59221 9.4032,8.73349 14.50752,19.70716 15.96682,32.40621 4.7276,1.07905 8.6272,0.8887 11.807,-3.18976 0.9162,-1.1752 3.2025,-1.28212 4.8607,-1.8788 -0.6515,1.62564 -1.1746,3.32057 -2.0012,4.85168 -0.5216,0.9663 -1.4967,1.68779 -2.4813,2.7486 1.5205,1.59773 3.0334,2.90376 4.1503,4.48891 0.5084,0.72137 0.2332,1.99473 0.3135,3.0177 -1.0541,-0.007 -2.7347,0.40879 -3.0681,-0.085 -5.0239,-7.43963 -12.6479,-5.14962 -19.5216,-5.26044 -10.99469,-0.17728 -22.02313,0.46074 -32.98553,-0.1599 -19.56116,-1.10745 -34.85828,7.03987 -47.80048,20.71254 -16.47821,17.40816 -27.58563,38.268355 -37.80053,59.666375 -10.32068,21.61957 -19.87409,43.64514 -31.11182,64.77582 -10.97848,20.64313 -29.35753,35.81532 -49.97247,44.09265 -17.78384,7.14058 -39.136748,5.6135 -57.443998,2.3371 m -2.58979,-38.83239 c 20.53028,14.63403 48.789368,10.57053 61.537448,-9.06991 7.2435,-11.15986 8.59276,-23.63726 6.69382,-36.52405 -0.30444,-2.06602 -0.70029,-4.06921 -1.19209,-6.00249 -0.63868,-2.51068 -1.43918,-4.90343 -2.41145,-7.16272 -4.25366,-9.88434 -11.795,-17.21413 -23.45664,-20.68787 -17.451358,-5.19836 -33.843048,-2.80011 -46.577818,11.67183 -14.55997,16.54609 -14.04233,52.36466 5.40673,67.77521 M 284.72244,23.243315 c 0.4563,-0.74324 1.48666,-1.8528 1.28164,-2.17409 -2.55416,-4.00285 -13.00125,-7.7342 -18.15368,-6.65112 2.15753,7.47745 7.035,10.19615 16.87204,8.82521 z"
   id="path444"
   sodipodi:nodetypes="cssscsssscscscsccsssssaccssssssccscc" />









<path
   style="fill:#d42121;fill-opacity:1;stroke:#ff0000;stroke-width:7.55906"
   d="M 94.424102,119.98803 Z"
   id="path1510" /><path
   id="path1564"
   style="font-variation-settings:normal;opacity:1;vector-effect:none;fill:#eb8c03;fill-opacity:1;stroke:none;stroke-width:1;stroke-linecap:butt;stroke-linejoin:miter;stroke-miterlimit:4;stroke-dasharray:none;stroke-dashoffset:0;stroke-opacity:1;-inkscape-stroke:none;stop-color:#000000;stop-opacity:1"
   d="m 126.88528,149.71444 c -1.41454,5.73322 11.81114,50.80836 11.81119,56.97841 -3.2e-4,41.12409 33.33685,74.46214 74.46094,74.46289 41.12485,3.2e-4 74.46321,-33.33804 74.46289,-74.46289 3.2e-4,-41.12485 -33.33804,-74.46321 -74.46289,-74.46289 -21.31113,3.9e-4 -41.28577,8.32166 -54.9117,-10.99219 -4.8461,-6.86903 -22.99417,9.47643 -26.51498,18.5969 m 79.27238,24.28787 c 24.22271,3.8e-4 43.859,19.63667 43.85937,43.85938 -3.8e-4,24.2227 -19.63667,43.85899 -43.85937,43.85937 -24.22271,-3.7e-4 -43.859,-19.63666 -43.85938,-43.85937 3.7e-4,-24.22271 19.63667,-43.85901 43.85938,-43.85938 z"
   sodipodi:nodetypes="cccccscccccc" /></svg>
