<?xml version="1.0" encoding="UTF-8" standalone="no"?>
<svg
   version="1.1"
   id="Layer_1"
   x="0px"
   y="0px"
   width="100%"
   viewBox="0 0 1024 1024"
   enable-background="new 0 0 1024 1024"
   xml:space="preserve"
   sodipodi:docname="panics.svg"
   inkscape:version="1.4 (e7c3feb100, 2024-10-09)"
   xmlns:inkscape="http://www.inkscape.org/namespaces/inkscape"
   xmlns:sodipodi="http://sodipodi.sourceforge.net/DTD/sodipodi-0.dtd"
   xmlns="http://www.w3.org/2000/svg"
   xmlns:svg="http://www.w3.org/2000/svg"><defs
   id="defs23" /><sodipodi:namedview
   id="namedview23"
   pagecolor="#ffffff"
   bordercolor="#000000"
   borderopacity="0.25"
   inkscape:showpageshadow="2"
   inkscape:pageopacity="0.0"
   inkscape:pagecheckerboard="true"
   inkscape:deskcolor="#d1d1d1"
   inkscape:zoom="0.5509277"
   inkscape:cx="556.33434"
   inkscape:cy="322.18383"
   inkscape:window-width="1132"
   inkscape:window-height="1163"
   inkscape:window-x="0"
   inkscape:window-y="0"
   inkscape:window-maximized="0"
   inkscape:current-layer="Layer_1" />
<path
   fill="#000000"
   opacity="1"
   stroke="none"
   d="m 707.52588,75.233124 c 18.83685,7.258018 31.59186,19.64933 36.01208,39.414666 5.31891,23.78353 -9.40893,50.40232 -32.30401,58.95627 -2.12006,0.79209 -4.53919,1.07627 -6.41095,2.99939 0.32843,0.75144 0.55127,1.54709 0.9826,2.20635 9.73719,14.88156 17.99121,30.59314 25.56085,47.02217 3.016,-1.75781 4.27332,-4.12857 5.72217,-6.29332 14.83313,-22.16295 29.71106,-44.38893 47.39478,-64.32594 6.12579,-6.90642 5.3753,-12.03328 2.578,-18.84928 -1.64679,-4.01275 -4.3172,-7.01303 -7.90484,-9.39249 -3.74372,-2.48296 -7.31092,-5.2303 -10.9975,-7.80161 -4.68573,-3.26828 -5.34168,-7.74427 -3.91791,-12.83284 5.25781,-18.79079 26.34467,-25.770297 41.88422,-13.880031 0.78466,0.600411 1.58105,1.185455 2.66882,1.999878 2.46423,-3.985893 2.56091,-7.427834 -0.53833,-10.959099 -3.21295,-3.660782 -7.04633,-6.601288 -10.66925,-9.790466 -8.32623,-7.32943 -7.87451,-13.156845 1.45349,-18.673767 17.52838,-10.366921 38.41852,-1.089073 43.09155,19.183487 0.85236,3.697441 1.4364,7.456741 2.7359,11.193535 3.1092,-5.423073 2.57373,-11.221177 1.16077,-16.873528 -0.79218,-3.168694 -2.63153,-6.086979 -4.08417,-9.076748 -2.89026,-5.94873 -2.35138,-7.712746 3.7713,-10.382774 9.11042,-3.972908 18.29334,-4.461384 26.58008,1.660419 10.13288,7.485657 11.78083,18.327713 10.53168,30.034683 -0.57062,5.348214 -3.85462,9.785683 -5.16095,15.121109 2.77655,-0.325027 3.9314,-2.262329 5.26434,-3.869819 2.78644,-3.360367 4.71973,-7.244789 6.62268,-11.145355 3.96375,-8.124627 9.14057,-10.930016 18.09491,-9.872361 12.15259,1.435425 18.80555,10.069855 17.21668,22.455422 -1.06262,8.283165 -4.56366,15.206935 -11.32904,20.395915 -2.85987,2.19351 -6.15265,3.95209 -8.40436,7.30131 6.34827,1.50377 12.34351,3.31739 17.61688,7.0158 5.19104,3.64069 9.10748,8.22359 11.58551,14.07672 3.80023,8.97585 1.1034,16.55594 -7.83533,20.65223 -7.6961,3.52687 -15.78448,5.608 -24.25604,3.24308 -3.68664,-1.02917 -6.28509,-0.0407 -9.06299,2.3283 -4.46044,3.80401 -9.62481,6.64227 -15.14032,8.5904 -2.99273,1.05709 -3.99401,2.93123 -4.60351,5.77205 -8.38391,39.07553 -17.40979,78.00336 -30.16773,115.9246 -13.49701,40.11798 -28.26354,79.75021 -47.83166,117.40783 -9.76532,18.79282 -20.01379,37.30148 -32.98212,54.13599 -2.3667,3.07229 -3.44891,6.26657 -3.21759,10.15246 1.87152,31.43354 2.73401,62.89991 2.94116,94.38721 0.0258,3.92688 -0.55633,7.90918 0.46143,12.1225 -7.72366,46.64852 -21.86297,177.45683 -87.5141,230.89514 -1.2712,1.03473 -2.81933,0.0196 -3.99182,1.30023 -15.95483,17.42627 -35.90753,29.08551 -57.09497,38.70484 -26.01526,11.81134 -53.12335,20.36218 -81.17951,25.96661 -43.56905,8.70311 -89.94003,0.016 -112.56784,-4.40552 -42.47516,-8.29962 -82.40713,-22.98743 -119.01461,-46.12268 -16.49176,-10.42254 -32.02469,-22.24499 -45.25589,-36.78094 -1.45672,-1.60041 -2.42572,-3.31415 -5.29696,-2.02045 -10.65542,4.80127 -21.90455,3.49896 -32.93161,2.10974 -9.09783,-1.14618 -17.93112,-3.76172 -25.80178,-8.86261 -1.52974,-0.99139 -3.19876,-1.93207 -5.13379,-0.87775 -10.26609,5.594 -19.34594,1.98212 -28.0318,-3.77618 -14.62561,-9.69605 -26.4764,-22.19855 -36.81024,-36.31042 C 104.27692,722.56543 90.885887,696.02319 79.107117,668.5293 72.947197,654.15082 65.966621,640.12531 59.471516,625.888 c -1.236306,-2.71002 -2.098935,-5.62317 -2.846608,-8.51691 -1.70021,-6.58007 -1.004951,-7.7351 5.323506,-9.88495 1.087162,-0.36944 2.141788,-0.83465 3.461941,-1.35418 -1.154854,-4.2934 -2.475678,-8.38489 -3.327633,-12.57178 -1.148136,-5.64245 1.296344,-8.44342 7.072437,-8.87311 6.093475,-0.45318 11.330925,2.1322 16.435547,4.52216 1.610779,-0.51935 1.650612,-1.81427 2.001861,-2.87439 2.724266,-8.22211 8.121155,-11.12879 16.565113,-8.8656 4.05619,1.08722 8.03015,2.51739 11.17341,5.35376 3.85503,3.47876 6.42534,2.32312 9.3195,-1.38904 12.11374,-15.5379 27.95369,-25.46985 47.00984,-30.22644 8.27757,-2.06604 16.74464,-2.93927 25.2791,-2.42438 3.73154,0.2251 5.31161,-1.08624 5.86073,-4.89288 4.16019,-28.84021 9.04643,-57.54297 17.47223,-85.51575 0.49373,-1.63913 0.85361,-3.31738 -0.38394,-4.75314 -9.66995,-11.21893 -14.06381,-25.23545 -20.24417,-38.28617 -21.70027,-45.82327 -36.01018,-94.16705 -48.91193,-143.02621 -8.29146,-31.39995 -15.91131,-62.92584 -21.4817,-94.925 -0.54448,-3.12773 -1.69428,-5.03667 -4.90303,-6.01502 -7.03321,-2.14444 -12.94991,-6.16372 -17.31172,-12.12346 -2.1322,-2.91331 -4.43053,-3.38868 -7.761349,-2.40229 -6.104241,1.80764 -12.130082,1.28492 -18.010628,-1.3518 -13.421738,-6.01803 -16.501831,-23.42886 -6.231919,-35.3025 5.425622,-6.27287 12.471528,-9.23177 20.460244,-10.40977 1.127228,-0.16621 2.371719,-0.0602 3.389076,-1.39761 -1.706299,-3.26113 -5.239853,-4.74639 -7.766396,-7.23268 -5.974517,-5.879329 -8.873367,-12.832614 -7.643524,-21.186542 1.259018,-8.552055 6.590233,-13.771789 14.715676,-15.784538 8.16755,-2.023182 15.18662,0.442993 20.3922,7.20166 1.61436,2.095978 2.77142,4.540268 4.18741,6.793953 1.6345,2.601464 3.32381,5.168503 5.46812,7.563195 -1.07243,-6.947037 -0.98551,-13.635392 0.46402,-20.371232 4.14589,-19.265594 27.79126,-27.501865 44.36224,-16.806911 5.34348,3.4487 5.75105,6.957264 1.86786,12.136757 -1.89697,2.530243 -4.00412,4.904072 -6.03905,7.329479 -4.36175,5.198723 -4.49972,13.690117 0.59331,19.122254 1.60018,0.01031 2.1518,-1.394082 3.01293,-2.328827 7.58781,-8.236428 16.59541,-11.918091 27.85156,-9.148545 10.74306,2.643303 16.93474,9.977814 20.92116,19.69841 1.43479,3.498619 0.68673,6.886777 -0.89768,10.134007 -1.48106,3.03537 -3.32507,6.08793 -6.22861,7.67791 -9.20768,5.04217 -12.19998,13.45731 -13.56503,23.02423 -0.32471,2.27569 -0.19539,4.15005 1.19273,6.09674 16.15557,22.65629 31.58764,45.80357 46.76684,69.12179 0.60629,0.93141 1.49633,1.6781 2.51326,2.79557 2.35038,-2.73748 1.84059,-5.952 2.30908,-8.71717 3.28155,-19.36854 9.45968,-37.44441 22.69223,-52.45808 1.9957,-2.26433 0.82516,-3.8077 -0.30234,-5.72734 -12.75897,-21.72335 -9.16556,-49.109545 8.9389,-66.563211 21.62195,-20.844693 59.30375,-22.264027 78.30478,10.811851 0.65131,1.133759 1.34558,2.242813 2.18521,3.638275 8.20798,-3.101822 16.05469,-7.131706 24.38453,-8.957832 11.60562,-2.544274 20.06341,-8.607651 28.17956,-17.047989 10.38998,-10.804985 22.64929,-19.697506 37.11115,-24.785053 3.8233,-1.344994 8.59741,-3.904938 11.54028,0.124801 2.7464,3.760655 -1.17886,7.38583 -3.202,10.707936 -1.50705,2.474682 -3.87863,4.485115 -4.24695,7.867645 13.57624,-4.949371 26.03647,-11.723892 39.75925,-15.373581 10.66748,-2.837105 21.40714,-5.042015 32.42014,-5.505291 3.65454,-0.153732 8.51434,-0.901062 10.20685,3.355072 1.67645,4.215889 -2.63062,6.315094 -5.35035,8.555511 -3.07959,2.536847 -6.37921,4.811619 -9.63256,7.130963 -2.69001,1.917683 -5.10212,4.078483 -8.00586,7.606743 8.75042,-1.340508 16.20855,-2.913536 23.74536,-3.540352 12.41894,-1.03286 24.91339,-2.336453 37.28827,0.495293 2.16259,0.49488 5.18426,0.665657 5.60705,3.409164 0.46692,3.029732 -2.50293,4.078667 -4.63727,5.169784 -3.21142,1.641709 -6.60736,2.922616 -11.4447,5.014031 23.15381,5.557182 43.60083,14.111542 63.45392,25.43401 18.12933,-27.387227 42.57123,-38.608334 75.1709,-29.630276 M 627.64447,830.11798 c 19.60919,-11.43652 36.6449,-25.94446 51.4234,-43.13623 29.69568,-34.54492 45.2143,-75.69952 55.66272,-119.24231 4.32892,-18.0401 6.37073,-36.35443 7.38208,-54.8385 1.44879,-26.47943 0.98718,-52.96405 0.25403,-79.44006 -0.27197,-9.82019 -0.97253,-19.58441 0.0452,-29.42398 0.33917,-3.27878 2.34637,-7.03797 -0.63599,-10.53186 -0.99957,0.82165 -1.86102,1.35266 -2.49774,2.08032 -6.97797,7.97348 -16.38776,11.78332 -26.00867,15.21551 -1.53638,0.5481 -3.34601,1.31034 -4.71759,-0.0626 -1.43506,-1.43655 -0.29895,-3.17859 0.18439,-4.69492 1.45996,-4.58084 4.64105,-8.05362 7.82885,-11.45336 12.31525,-13.13395 24.31574,-26.52128 34.87043,-41.15296 21.82391,-30.25409 37.07403,-63.88132 50.42974,-98.44867 13.86194,-35.87787 27.4278,-71.85281 37.0066,-109.20831 5.70617,-22.25324 12.00049,-44.34903 16.19317,-66.97022 0.63935,-3.44952 -0.23364,-5.32954 -3.39673,-6.64018 -1.66802,-0.69118 -4.08917,-0.9556 -4.01483,-3.79779 2.51453,-2.4095 5.66803,-1.21715 8.54206,-1.54106 11.75146,-1.32434 22.45361,-4.75177 29.74914,-14.95917 3.7201,-5.20485 7.04651,-6.48747 13.30438,-4.69441 2.69501,0.7722 5.25104,2.08975 7.79407,3.31724 3.21893,1.55376 6.41498,1.62171 9.66028,0.23568 3.44489,-1.47124 4.04492,-3.78563 1.72485,-6.69144 -3.14306,-3.93642 -7.0982,-6.36168 -12.28711,-6.8119 -5.2965,-0.45955 -10.61236,-1.02591 -15.82476,-2.03548 -5.40058,-1.04601 -10.09565,-4.16997 -11.04431,-9.63002 -0.90827,-5.2282 3.83428,-8.08693 7.74615,-10.63025 4.18311,-2.71961 8.69476,-4.94377 12.81293,-7.75106 6.14227,-4.18715 9.32702,-10.248986 9.99463,-17.625962 0.28186,-3.113838 -1.13758,-5.168602 -4.17353,-5.894035 -2.98736,-0.713852 -3.70904,1.768921 -4.46551,3.69136 -2.93811,7.46743 -7.90613,13.406867 -13.5199,18.977887 -10.36127,10.28227 -11.19714,10.5072 -24.6604,4.49792 -0.30432,-0.13586 -0.60303,-0.28419 -0.90753,-0.41946 -6.94733,-3.08593 -7.42462,-4.61924 -3.43622,-11.236523 0.68726,-1.140091 1.54327,-2.17884 2.224,-3.322326 4.6936,-7.884781 7.73144,-16.206749 6.91534,-25.60286 -0.30328,-3.492599 -1.39807,-6.538265 -4.25873,-8.67289 -1.74768,-1.304138 -3.86438,-2.620468 -5.9859,-1.458416 -2.4754,1.355877 -0.74481,3.630002 -0.30041,5.377614 3.46631,13.630523 -0.20337,25.345558 -9.47241,35.508631 -4.24836,4.6582 -7.94879,5.0146 -13.94403,2.11352 -4.82325,-2.33392 -4.07312,-6.263906 -3.25672,-10.312696 0.36164,-1.793365 0.65204,-3.603538 0.90637,-5.415687 1.46045,-10.406082 -5.75524,-21.255104 -15.82702,-23.579743 -2.81098,-0.648784 -5.54267,-0.263916 -7.3078,2.385407 0.69012,2.404503 2.62317,3.228294 4.22686,4.362945 11.62226,8.223076 14.83417,21.578728 8.15058,33.949864 -4.01886,7.43874 -11.69202,8.76992 -17.68231,3.04522 -2.17664,-2.08008 -4.3935,-4.09031 -7.18714,-5.32999 -4.78314,-2.12259 -10.09002,-1.2321 -13.44964,2.08417 -2.67029,2.63581 -2.81519,4.86556 0.83258,6.54414 11.45056,5.26918 18.27228,13.9066 20.31726,26.50903 1.25989,7.76458 5.84698,13.20181 13.29163,16.24473 3.6842,1.50591 7.22302,3.42645 10.67114,5.42899 2.04504,1.18768 5.24316,2.10681 4.62176,5.1703 -0.64825,3.19562 -3.79388,3.79611 -6.66809,4.2934 -8.83429,1.52842 -16.70825,-1.1077 -24.13605,-5.59655 -2.3341,1.33416 -3.81774,3.33257 -5.26641,5.36608 -12.46686,17.49963 -25.06031,34.90374 -37.85633,52.16778 -4.65051,6.27434 -10.44946,12.2675 -11.31909,20.77776 -0.12518,1.22461 -1.21936,2.40901 -2.43121,2.00706 -3.58979,-1.19066 -4.79877,1.6234 -6.29132,3.60256 -8.82276,11.69957 -17.81452,23.28703 -26.21827,35.28422 -24.85101,35.47712 -49.18554,71.29154 -68.29907,110.3339 -0.95343,1.94751 -1.67334,5.18185 -4.46631,4.63745 -3.1438,-0.61277 -2.29663,-3.92169 -2.51989,-6.31119 -0.0309,-0.33048 -0.011,-0.66629 -0.005,-0.99951 0.33459,-18.90515 7.48492,-35.65698 16.45844,-51.80738 8.67053,-15.60491 18.95239,-30.1918 28.90844,-44.96804 10.51123,-15.59995 21.10156,-31.18381 34.01813,-44.97338 1.56427,-1.66998 1.34192,-3.18979 0.7038,-5.00738 -2.8686,-8.16991 -5.7082,-16.33344 -9.05201,-24.34426 -7.90509,-18.93821 -20.8219,-34.85138 -31.04705,-52.38122 -4.11267,-7.05046 -8.67212,-13.99223 -14.90754,-19.30277 -3.9674,-3.37895 -4.64117,-6.98631 -3.74188,-11.49388 2.63965,-13.23189 15.68476,-25.10605 29.15265,-26.5738 18.04614,-1.96669 29.15118,12.56606 22.61078,29.47222 -3.09699,8.00536 -8.85724,13.52656 -15.92438,17.95777 -1.77447,1.11262 -4.10431,1.53483 -5.01483,3.85287 0.96643,2.80963 3.1795,2.63951 5.34015,2.18418 19.7547,-4.1632 31.57996,-19.01424 32.42859,-36.81292 0.83472,-17.50812 -12.06177,-32.54793 -30.73889,-35.719271 -17.90619,-3.040428 -40.51502,4.911018 -50.51062,26.179841 -2.81824,5.99679 -5.2442,12.17791 -8.02607,18.68612 -3.72174,-2.11417 -7.27667,-4.14922 -9.11303,-8.13903 -1.00415,-2.18163 -2.32862,-4.07551 -4.28198,-5.42272 -8.5301,-5.88301 -17.62147,-10.75574 -27.11921,-14.88365 -2.06848,-0.89902 -3.63177,-1.03131 -4.8338,1.52972 -1.48962,3.17359 -4.52636,3.61168 -7.703,3.28322 -2.48047,-0.25649 -4.95307,-0.61396 -7.43872,-0.79206 -22.57526,-1.61763 -42.8573,-8.92867 -59.89655,-24.197583 -2.60608,-2.33535 -5.48248,-2.279983 -8.42236,-1.454788 -3.35996,0.943085 -6.62589,2.228653 -9.91565,3.412682 -4.1051,1.477478 -8.26608,2.589065 -12.68973,2.257095 -2.02295,-0.15181 -4.17108,-0.267433 -4.9664,-2.551598 -0.72378,-2.078727 0.16684,-3.951881 1.53687,-5.514785 0.87073,-0.993355 1.89908,-1.866494 2.93747,-2.69204 7.38214,-5.869286 14.78506,-11.712357 22.66949,-17.949921 -2.98242,-0.301956 -5.01358,0.536816 -6.98587,1.264817 -8.12353,2.998504 -16.21762,6.079895 -24.28436,9.228599 -11.9646,4.670151 -23.50598,10.247208 -34.78281,16.388413 -2.28485,1.244301 -4.99011,3.312294 -7.2518,0.812591 -2.23596,-2.471321 -1.4841,-5.856895 0.2558,-8.393676 2.1524,-3.138146 4.84277,-5.917557 7.39334,-8.769082 2.01257,-2.250007 3.59372,-4.637603 3.85077,-8.193584 -2.92709,1.426388 -5.19394,3.008694 -7.39667,4.786854 -9.65365,7.79319 -17.49576,17.34021 -25.84115,26.404976 -3.41581,3.71025 -7.00797,7.39494 -12.6518,6.87324 -10.71481,-0.99043 -18.31979,5.83121 -27.11731,10.13166 32.61627,7.00345 57.3244,24.10218 72.47779,54.33674 38.40841,-64.69497 108.05395,-71.489757 157.16076,-38.86473 23.64612,15.70967 37.08502,38.70643 42.8017,65.77902 8.62585,40.8498 -4.73999,75.2969 -35.23615,105.08029 12.91547,-3.21021 19.69422,-13.03781 29.16114,-19.23459 1.17065,3.41928 -0.1153,5.24793 -1.08332,7.14752 -3.11999,6.12219 -7.28491,11.51367 -11.5061,16.90305 -20.41608,26.06616 -54.95911,34.61838 -85.10779,27.03781 -2.28351,-0.57416 -4.76288,-1.27954 -5.5628,-3.74695 -0.97321,-3.00207 -3.25324,-3.46322 -5.77851,-3.79843 -5.7633,-0.76495 -11.58087,-1.13425 -17.19867,-2.85168 -19.91864,-6.08936 -37.10659,-16.3758 -50.3059,-32.74076 -2.19907,-2.72653 -3.81504,-3.18667 -6.89118,-0.83505 -8.12222,6.20932 -17.23386,10.70242 -27.00885,13.7901 -1.55569,0.49139 -3.09915,1.02173 -5.86331,1.93591 7.78589,1.22971 14.06177,2.02017 20.25513,3.23239 34.71127,6.7941 63.65805,23.9618 87.68063,49.57401 20.59094,21.95358 31.90826,47.23608 27.04712,78.17023 -2.71967,17.30676 -13.48383,29.92834 -28.61469,32.613 -0.89337,0.15854 -1.96405,0.82727 -2.70727,-0.87933 5.24792,-3.07581 2.52618,-5.78803 -0.47687,-8.7186 -4.93048,-4.81158 -10.58978,-8.67282 -16.33282,-12.33111 -30.99488,-19.74347 -64.3559,-31.44788 -101.63807,-27.36469 -23.03234,2.52252 -44.13235,10.16922 -60.18808,28.08017 -1.97686,2.20535 -3.93704,2.02182 -6.20553,0.68878 -4.52557,-2.65939 -8.32355,-6.03015 -11.14194,-10.53113 -13.1672,-21.02798 -14.09442,-43.57278 -6.61148,-66.33023 9.95111,-30.26391 30.5242,-50.62454 60.94687,-60.75335 2.42404,-0.8071 5.14487,-1.27863 6.7868,-3.58625 -1.33666,-2.37341 -3.93917,-2.26446 -5.5202,-3.60217 -5.80932,-4.91525 -10.79654,-3.84936 -17.01868,0.14005 -6.51034,4.17419 -14.1502,6.46881 -19.49389,12.65286 -2.19019,2.53458 -5.74875,3.20044 -8.98926,4.08182 -2.88434,0.78451 -5.71884,1.75744 -8.56161,2.68899 -15.09299,4.94583 -29.54212,2.84992 -43.47342,-4.12713 -2.64514,-1.32477 -4.62391,-3.51957 -3.56739,-6.89057 1.11216,-3.54849 3.96497,-2.60559 6.63361,-2.51095 4.44498,0.15768 8.83643,2.048 14.58386,0.66052 -21.70663,-12.78284 -37.43902,-29.60559 -46.68823,-52.50238 -2.16528,2.4895 -2.37668,4.65045 -2.82797,6.75552 -3.61466,16.86044 -4.36837,34.00577 -4.78331,51.14487 -0.58673,24.23428 2.11322,48.16232 7.86702,71.72699 0.84533,3.46207 1.58612,6.86194 -1.16992,9.91101 -2.97611,3.29257 -4.45484,7.37064 -5.91366,11.4649 -10.08435,28.30274 -16.31036,57.61902 -22.83314,86.85639 -4.05808,18.1897 -7.82245,36.43243 -10.75188,54.85107 -0.88341,5.55451 0.37152,9.12512 5.51996,11.78699 5.93565,3.06879 11.035,7.46265 15.84871,12.0957 1.58559,1.52613 4.58131,3.11939 3.10901,5.59162 -1.66828,2.80121 -4.65538,0.6983 -6.73493,-0.11792 -9.48303,-3.72187 -19.0747,-7.09632 -29.13263,-8.77368 -29.25851,-4.87946 -54.00128,3.12768 -73.38999,26.13128 -2.57145,3.05084 -3.08333,5.42774 0.60421,8.21375 3.15776,2.38586 5.80364,5.47967 8.53835,8.38965 13.05163,13.88836 24.02278,29.34234 34.69079,45.10394 16.58207,24.49933 28.21822,50.94061 33.10485,80.14636 2.23063,13.33179 4.19001,26.89868 -6.16037,38.34766 -0.14319,0.15826 0.0546,0.62481 0.17076,1.59479 9.976,4.14147 20.30907,5.2445 31.34085,2.29522 -1.63077,-4.81616 -5.08823,-7.5805 -7.70718,-10.9674 -5.38822,-6.96827 -12.46842,-13.44202 -7.80118,-23.81165 1.23037,-2.73352 0.0721,-7.30817 3.82327,-7.91492 3.50147,-0.56634 5.47653,3.20343 7.59624,5.73725 0.10568,0.12628 0.16586,0.28967 0.26298,0.42437 5.16111,7.15845 9.96483,14.61072 15.55573,21.41626 15.20495,18.50843 33.04916,34.2226 52.50284,48.13953 24.69632,17.66736 51.37741,31.43689 80.32284,40.70428 24.52054,7.85059 49.63825,12.7309 75.28494,14.99097 22.44529,1.97791 44.94996,3.04297 67.27738,-0.35675 36.42761,-5.54675 70.46277,-18.32934 103.38629,-36.28534 m -5.37744,-652.90695 c -5.15906,-10.93062 -11.38275,-21.08252 -20.61456,-29.16155 -21.85364,-19.12477 -47.15314,-27.67392 -75.80652,-22.25271 -50.07999,9.4751 -84.54621,57.8511 -70.47846,112.61784 6.00852,23.39151 20.22473,42.54108 41.58859,55.40149 39.36814,23.69855 80.80247,18.53198 111.47648,-16.27444 25.71594,-29.18042 26.92346,-63.92552 13.83447,-100.33063 M 270.3378,211.77702 c 0.04,6.14878 -0.26038,12.28951 0.92709,18.40872 5.52283,28.46017 19.6482,50.78209 46.31104,63.65526 15.04178,7.26242 30.17505,9.5145 44.26703,-2.94851 2.70016,-2.38806 3.5675,-4.01865 1.77112,-7.37809 -8.99619,-16.824 -3.52317,-32.73704 12.69598,-41.39343 13.01694,-6.94729 27.1922,-6.9806 41.38367,-6.7348 6.24093,0.10808 12.3778,2.25937 18.57037,1.35728 1.0795,-2.27401 0.63586,-4.30204 0.34164,-6.22545 -1.39746,-9.13603 -1.52075,-18.30731 0.18155,-27.34787 1.19825,-6.36343 -0.0517,-12.18075 -1.89715,-18.10307 -13.42524,-43.08528 -59.58698,-67.98795 -102.15595,-53.75628 -37.75824,12.62335 -57.66885,40.39886 -62.39639,80.46624 M 119.76617,97.697884 c -3.48884,-4.060074 -6.3423,-8.556565 -9.09272,-13.130639 -0.93928,-1.562072 -1.95114,-3.105804 -3.11915,-4.499214 -1.85918,-2.21791 -4.06899,-3.310058 -7.04784,-1.920356 -2.791204,1.302146 -2.465711,3.661605 -2.325842,5.985595 0.284142,4.721092 3.088802,8.021363 6.515382,10.795281 4.01147,3.247398 8.35445,6.091039 12.30817,9.402859 8.98682,7.5278 7.94194,14.45594 -2.70349,19.26525 -2.47464,1.11799 -5.0248,1.63536 -7.73039,1.76993 -3.82224,0.19011 -7.634156,0.59021 -11.449913,0.9073 -3.513894,0.29201 -6.285317,2.11631 -8.741852,4.43783 -2.283592,2.15808 -2.966736,5.03498 -1.799347,7.80061 1.237068,2.93066 4.134842,2.21611 6.590309,1.83604 4.277321,-0.66203 8.55098,-1.36273 12.802783,-2.17038 4.54203,-0.86277 7.65159,0.38843 9.49071,4.99468 2.5072,6.27948 7.22524,10.62735 13.16919,13.81265 5.10259,2.73442 10.60794,3.90772 16.22476,4.63133 2.98357,0.38439 4.24344,1.47588 4.43363,4.69774 0.31378,5.31539 -1.34519,11.54575 5.30659,14.70676 0.5967,0.28355 0.77455,1.42818 1.16887,2.1611 0.91699,3.70483 1.97034,12.50948 -1.00798,11.23065 -1.06518,0.90497 -0.80821,1.95104 -0.64506,2.88671 3.05841,17.54097 7.11242,34.86647 11.40437,52.13743 0.34465,1.3869 5.03569,12.80616 5.15838,14.44205 0.81963,10.92731 5.08501,21.00012 7.78722,31.45837 11.07446,42.8613 26.4101,84.16895 45.43579,124.12101 1.61016,3.38113 3.29486,6.74365 6.13773,10.1513 0.6859,-1.74887 1.1799,-2.77066 1.49365,-3.84509 3.31204,-11.34226 6.1154,-22.86301 10.05588,-33.98123 2.61165,-7.36893 5.37572,-14.20072 0.58964,-21.56916 -0.4218,-0.64944 -0.35058,-1.61163 -0.5384,-2.42156 -5.84626,-25.20841 -7.53438,-50.7132 -4.72486,-76.41633 1.71628,-15.70123 3.35767,-31.53332 8.41823,-46.56819 1.82352,-5.41763 1.83516,-9.4113 -1.89302,-13.53702 -1.22322,-1.35366 -2.39655,-2.80052 -3.30054,-4.3916 -7.12447,-12.53943 0.20349,-1.69042 -11.52162,-17.43707 -9.8471,-13.22452 -17.72307,-27.80902 -26.69632,-41.64116 -3.1458,-4.84921 -6.61114,-9.49113 -9.73521,-13.94894 -2.30847,0.16511 -3.26253,1.44151 -4.42917,2.32708 -5.97295,4.53402 -12.71095,5.42507 -19.88243,4.20279 -2.37042,-0.404 -4.77472,-1.16775 -5.26065,-3.85865 -0.47623,-2.63698 1.36835,-4.43514 3.4209,-5.62813 2.72375,-1.58315 5.54574,-3.10417 8.50084,-4.16225 8.58935,-3.07539 14.17187,-9.39658 14.52589,-18.01387 0.49271,-11.99304 4.80569,-20.61457 15.52673,-26.06303 1.34644,-0.68427 2.71277,-1.95697 2.43412,-4.009982 -0.78205,-5.761864 -8.36884,-10.304566 -13.96824,-8.55774 -4.75996,1.48494 -7.64773,5.119278 -10.85845,8.496941 -5.05521,5.318071 -7.96851,5.886461 -14.71027,3.133761 -9.0528,-3.69633 -12.81621,-11.537341 -14.46539,-20.219012 -1.45377,-7.652893 -1.1059,-15.430633 6.48935,-20.619945 1.01068,-0.690529 2.15043,-1.696698 1.6892,-3.368905 -1.55035,-1.849208 -3.59887,-1.367668 -5.52916,-0.96978 -6.96327,1.43533 -10.80142,6.136429 -11.47729,13.772862 -0.73698,8.326759 1.67322,16.150803 3.62811,24.069832 0.61342,2.484863 1.52814,5.132522 -1.44688,7.156798 -13.4953,9.1826 -13.47023,9.21945 -24.60494,-3.843306 m 54.80636,651.295946 c -3.54024,-18.26763 -9.92641,-35.52734 -18.13448,-52.19042 -2.34984,-4.77033 -5.43335,-8.7201 -9.59943,-11.90351 -4.49789,-3.43695 -8.97059,-6.90985 -13.54455,-10.24328 -3.39569,-2.47467 -7.17773,-4.07605 -11.35969,-4.9126 -3.75808,-0.75171 -6.102,0.59509 -7.66521,3.87994 -1.0844,2.27881 -1.83278,4.63507 -1.93695,7.17365 -0.45821,11.16687 1.17996,21.86078 6.57123,31.86242 7.22921,13.41132 16.01977,25.75599 26.03101,37.14655 6.78398,7.71863 13.79638,15.43658 23.44971,19.91498 4.94141,2.29248 7.14729,1.00653 7.47713,-4.43952 0.31469,-5.19635 -0.76677,-10.27972 -1.28877,-16.28821 M 380.46176,257.69052 c -0.75531,4.95889 1.09387,7.30441 6.07941,8.04291 2.80212,0.41507 5.95837,-0.65116 8.50049,1.6543 -1.25809,2.58505 -3.56601,2.53353 -5.63678,2.8395 -2.98526,0.44107 -4.94049,1.92749 -5.35541,5.0138 -0.39362,2.92773 -0.25806,5.74463 2.74463,7.41095 5.99969,3.32953 12.11731,6.43622 19.25027,6.0227 13.31821,-0.77203 24.99524,-6.36618 36.29831,-12.83578 2.13733,-1.22339 4.88434,-2.66901 3.38333,-6.24982 -1.55697,-3.71423 -4.3576,-2.78656 -7.16403,-2.19144 -8.15216,1.72873 -16.35995,3.03919 -24.73056,2.61148 -2.54306,-0.12991 -5.27789,-0.117 -7.45917,-3.1159 12.84064,-4.46619 26.61396,1.06155 39.19483,-5.05963 -2.4661,-4.97363 -6.86267,-6.69345 -11.10816,-8.30966 -11.86697,-4.51764 -24.2167,-3.84211 -36.49524,-2.59601 -6.10784,0.61985 -12.21276,1.88305 -17.50192,6.7626 m 36.78803,73.79596 c -0.0978,10.0159 1.15243,19.89056 2.98861,29.71692 0.77045,4.12308 2.84839,5.96262 7.22296,5.6376 4.63727,-0.34454 9.31733,-0.11664 13.97867,-0.1333 7.96338,-0.0285 9.13779,-0.85617 11.07395,-8.42666 2.51843,-9.84714 3.45254,-19.9726 5.09564,-29.97358 0.49359,-3.00454 -0.72998,-4.5234 -3.8302,-5.18347 -9.59125,-2.04202 -19.1629,-4.14035 -28.88504,-5.5054 -6.86148,-0.96347 -7.81189,-0.20395 -7.75974,6.89182 0.0147,1.99759 0.0669,3.99487 0.11515,6.97607 M 132.27982,620.22015 c -9.22938,-10.00476 -18.78794,-19.61273 -31.20825,-26.28882 2.32745,17.27003 6.73322,29.36335 21.42615,35.24158 7.57026,3.02857 13.37075,8.55487 18.35596,15.00159 15.37612,19.88348 27.7542,41.47461 37.29694,64.71326 1.67627,4.08203 3.47505,8.11377 5.20953,12.15081 7.01618,-2.91821 7.04326,-2.92724 4.82315,-9.56817 -0.79094,-2.36579 -1.70152,-4.69489 -2.63696,-7.00861 C 172.9819,673.38342 154.36146,646.1214 132.27982,620.22015 M 297.86725,110.60444 c 7.86944,-11.98826 26.66568,-13.367341 36.98605,-2.32047 3.58716,3.83966 6.50614,4.57259 10.42536,1.12257 0.86938,-0.76528 1.84893,-1.44282 2.86831,-1.99293 2.62985,-1.41919 2.71479,-3.2213 1.51197,-5.79783 -10.09427,-21.622776 -38.24555,-26.321812 -54.78211,-9.079449 -8.55438,8.919469 -11.26092,19.864479 -10.31387,31.752179 0.35748,4.48731 1.31808,9.21094 4.92013,12.78324 4.80832,-2.68575 7.30841,-5.98445 5.73545,-11.79164 -1.30533,-4.81894 0.0951,-9.56798 2.64871,-14.67567 M 400.664,328.71768 c -0.0643,-1.32803 -0.0836,-2.66006 -0.20135,-3.98334 -0.34253,-3.85183 -1.98276,-5.27273 -5.95325,-3.68688 -5.70639,2.2792 -11.54028,4.24652 -17.35605,6.24105 -2.73309,0.93732 -4.10413,2.55689 -3.81226,5.55191 0.93396,9.58475 2.14283,19.11722 5.16922,28.31342 1.28205,3.89578 3.76261,6.0448 8.16617,5.78342 3.81192,-0.22626 7.6485,-0.0109 11.47367,-0.0472 5.5697,-0.0529 6.40609,-0.7331 5.37643,-6.02085 -2.01227,-10.33371 -1.63943,-20.85214 -2.86258,-32.15155 M 114.29906,638.07147 c -4.31063,0.48426 -8.61753,0.5119 -12.928,-0.0343 -1.446614,-0.18335 -3.457364,-0.85718 -4.027012,0.86572 -1.701272,5.14545 -5.268059,10.24463 -4.61406,15.48603 1.140152,9.13757 5.725021,17.36193 9.625382,25.72693 0.44918,-2.91614 0.29166,-5.72406 0.47742,-8.5091 0.67421,-10.10834 5.42472,-14.40186 15.41716,-13.94208 8.32823,0.38312 14.76459,4.5094 20.19075,10.51691 1.42446,1.57709 2.83106,3.17029 4.24587,4.7561 -4.94493,-12.94445 -13.77849,-22.86853 -22.66945,-32.74432 -1.27013,-1.41077 -2.95923,-2.11249 -5.71806,-2.12189 M 86.054451,622.4173 c 1.69738,2.02777 3.307777,4.13775 5.120659,6.05639 1.361847,1.44135 3.019798,3.04187 5.164146,1.55994 2.038063,-1.40851 0.851418,-3.52197 0.122391,-4.96161 -3.746231,-7.39795 -7.725967,-14.69195 -14.220543,-20.15015 -1.706848,-1.43444 -3.337318,-3.23535 -6.546181,-2.95446 1.487358,7.70483 6.596878,13.36615 10.359528,20.44989 m -13.518188,6.25543 c 2.243728,4.35663 3.931732,9.10693 8.486114,12.30273 -0.941627,-5.54101 -4.638878,-11.08801 -9.32666,-14.26171 0.212692,0.5122 0.40274,0.96984 0.840546,1.95898 z"
   id="path1"
   sodipodi:nodetypes="cssccccsssscscsssscssssscssssscsssssscssscscscssssscsscsssssscsscssscsssscssssscssscssssscsssscsssssssscsscsscssssscssssscssssccccsssssccsscsssssscssssssssssssscsscscssscssssscssssssssssscsssscsssscssscssscssscsssscssssssssssssccssssssccssccsscccsssssssscsssscsssssssscssssssssccsssscssssscssscsssccssssssssssccsssssccsssssscsscsccsssssssssssssssssssccsssscssscssssssccsssssssssssscssscccssssssssssccscssssssssccssccsssssssscccscscscccsssssscsccssssssssccssscssscsccsssscccccc" />












<path
   fill="#000000"
   opacity="1.000000"
   stroke="none"
   d=" M593.260254,801.399231   C582.815369,808.100586 571.698547,810.851868 559.691895,810.413452   C555.934814,810.276245 552.871643,809.167969 550.706238,805.972900   C549.007080,803.465820 546.733826,802.020874 543.569275,802.186279   C519.656677,803.436157 503.780304,790.851074 491.429077,772.029419   C476.328308,749.017944 468.268585,723.392761 463.908997,696.556396   C459.605347,670.064026 457.804443,643.303467 457.838104,616.461182   C457.852753,604.788696 458.965942,593.152039 462.743835,581.991150   C466.189209,571.812622 472.331635,570.233704 480.292206,577.467468   C483.196320,580.106323 485.660339,583.229614 488.812714,586.662842   C490.220795,582.812134 491.444641,579.605286 492.562469,576.361816   C493.387512,573.968079 494.513275,571.747742 496.131836,569.817017   C500.091125,565.094116 504.682709,564.483276 509.790375,567.961365   C515.396545,571.778870 518.402527,577.563538 521.315063,583.389954   C522.560547,585.881592 523.614685,588.468872 524.788025,591.084595   C562.033386,562.271362 613.046875,565.436218 647.727844,592.654114   C667.361023,608.062500 675.269470,629.230225 680.479736,652.096313   C682.949036,662.933350 683.465759,674.001099 680.932373,685.510925   C677.631653,683.988525 677.158997,681.522522 676.586792,679.149353   C673.270935,665.394165 670.553589,651.408386 663.646362,638.851746   C648.871338,611.992493 627.960815,592.859253 596.641357,587.900085   C584.411987,585.963623 572.050415,586.791565 559.894409,589.473694   C555.981323,590.337158 554.924194,591.974792 556.730042,596.171326   C567.195068,620.490784 577.984619,644.800903 583.479004,670.814697   C589.656250,700.061584 590.487244,729.632385 584.515015,759.090820   C581.884521,772.066101 573.848999,781.784729 563.800659,789.976624   C562.554932,790.992310 560.799133,791.573120 560.610962,793.544983   C561.486877,795.440308 563.140442,794.865112 564.536316,794.725708   C577.270752,793.453796 589.350769,790.227356 600.227112,783.121948   C602.540344,781.610779 605.583679,778.177490 607.990234,780.862793   C610.262451,783.398132 607.314087,786.721985 605.576477,789.287964   C602.363770,794.032043 598.107361,797.771545 593.260254,801.399231  M535.963806,783.597473   C541.014282,781.303894 543.044739,776.655640 544.606506,771.896423   C550.978271,752.479492 552.380310,732.866211 546.602295,712.994202   C542.688354,699.533203 536.777771,687.100464 527.189026,676.794800   C518.493408,667.449097 506.685425,668.188538 498.696350,678.067749   C496.149506,681.217163 494.473724,684.825928 493.266937,688.672729   C491.113617,695.536682 489.932007,702.605469 489.365875,709.736328   C489.118530,712.851440 486.989349,715.380249 487.812775,718.895447   C491.024323,732.605408 495.689514,745.726868 502.618958,757.982788   C507.893402,767.311401 513.671753,776.305603 523.449158,781.680725   C527.098511,783.687012 530.866699,785.646240 535.963806,783.597473  M571.685303,726.318542   C575.137817,680.475464 559.775879,639.327332 540.375793,598.797791   C538.342712,600.628723 538.107971,602.681885 537.463501,604.491577   C533.534058,615.526123 531.770935,627.027222 530.122131,638.564087   C529.652161,641.852722 528.890015,645.765137 524.592468,645.733337   C520.875061,645.705933 520.134155,642.148193 519.618225,639.180664   C518.222290,631.152466 517.056763,623.084412 515.688293,615.051208   C513.864807,604.346436 511.048004,594.015747 504.072113,585.142639   C502.071564,586.735413 501.865967,588.784668 501.332306,590.638306   C498.549561,600.303955 499.170471,610.007385 500.693542,619.813293   C501.553528,625.350220 502.768341,630.974365 501.300323,636.653259   C500.715454,638.915710 499.684448,640.727966 497.196259,641.109375   C494.600067,641.507446 493.182922,639.803223 492.151520,637.802795   C490.158112,633.936462 488.879089,629.794189 487.717621,625.616882   C485.354309,617.117065 483.353210,608.504456 479.729218,600.401489   C478.532898,597.726685 477.248535,595.145569 474.853455,592.883789   C471.033539,605.274475 477.445374,686.764282 482.685028,694.184509   C483.512299,688.131958 483.263428,681.979736 485.851837,676.445068   C490.494934,666.516907 496.131622,657.679077 508.525208,656.307739   C519.908142,655.048279 527.873413,660.768066 534.954773,668.610535   C540.905701,675.201111 544.879761,682.973999 548.341858,691.132812   C548.744080,689.174133 548.918579,687.367188 548.715271,685.603882   C547.532959,675.350464 546.434570,665.087097 544.397705,654.947693   C543.574585,650.850220 542.854126,646.638855 544.882935,642.621033   C547.769287,643.210083 548.781860,645.050842 549.853943,646.663818   C554.693604,653.945251 558.304077,661.863708 560.120178,670.377808   C565.565430,695.906799 567.169983,721.742493 565.524841,747.790466   C565.441650,749.108704 564.666260,750.765137 566.868652,751.928711   C571.525024,744.222412 570.550659,735.524597 571.685303,726.318542  z"
   id="path14" />
<path
   fill="#000000"
   opacity="1.000000"
   stroke="none"
   d=" M369.493958,441.244751   C386.770050,438.041199 403.729340,435.555481 420.950867,435.769928   C425.430817,435.825745 429.903687,436.463867 434.379272,436.840912   C434.709778,436.868744 435.126892,436.836823 435.350800,437.019806   C440.281921,441.049591 445.699310,444.435791 450.697052,448.318512   C453.269165,450.316772 450.539948,452.452393 448.194366,453.279083   C440.626770,455.946259 432.792236,457.418335 424.827942,458.307068   C418.055969,459.062714 411.221252,459.368866 404.563507,460.996307   C402.810760,461.424774 400.572540,461.337097 399.888977,463.333405   C399.084381,465.683228 401.398499,466.823792 402.675385,468.190247   C409.119537,475.086334 418.165894,476.293518 426.593170,478.597595   C435.917175,481.146851 445.524445,482.282715 455.192932,482.814728   C457.588043,482.946503 460.954193,482.438568 461.559692,485.439636   C462.166046,488.445068 459.161407,489.948364 456.818573,491.169617   C440.411285,499.722198 423.806458,499.167969 407.260559,491.729340   C400.875305,488.858673 394.987427,485.029419 389.644135,480.435211   C387.442139,478.541931 386.012909,476.550537 387.890778,473.571686   C388.399628,472.764496 388.463837,471.671021 388.705505,470.702271   C390.722198,462.618622 390.633942,462.565247 383.564850,458.469360   C378.385986,455.468719 372.970093,452.712921 368.911896,448.178162   C367.060883,446.109772 364.929810,443.520508 369.493958,441.244751  z"
   id="path15" />

<path
   fill="#000000"
   opacity="1.000000"
   stroke="none"
   d=" M826.616272,125.342972   C825.522095,124.289047 824.659912,123.508942 823.854492,122.674049   C822.390503,121.156532 821.384033,119.499901 822.585510,117.343735   C823.717102,115.313080 825.602661,114.841835 827.699768,115.069878   C837.059692,116.087685 844.298279,120.719810 849.229004,128.600616   C852.849304,134.386795 853.655884,141.022522 853.452271,147.762756   C853.394836,149.664185 852.915466,151.461426 850.956055,152.266739   C849.067261,153.042999 848.047302,151.516953 846.663147,150.600250   C840.642944,146.613266 836.811951,141.036285 833.902466,134.564758   C832.331604,131.070770 829.521545,128.348312 826.616272,125.342972  z"
   id="path17" />


<path
   fill="#000000"
   opacity="1.000000"
   stroke="none"
   d=" M536.606140,198.351242   C534.518921,202.737091 531.533875,205.772736 527.679810,207.993484   C518.928589,213.036011 507.948883,209.751526 503.486023,200.754181   C498.565857,190.834976 499.468628,178.957336 505.621246,172.660568   C512.634827,165.482620 522.821533,163.698944 530.717041,168.266296   C538.416626,172.720322 541.593933,182.021851 538.864136,192.409897   C538.360168,194.327759 537.487915,196.148849 536.606140,198.351242  z"
   id="path20" />
<path
   fill="#000000"
   opacity="1.000000"
   stroke="none"
   d=" M310.875305,189.267197   C311.911865,182.496216 313.600098,176.485168 318.526611,171.910934   C324.429962,166.429733 332.516815,164.855118 339.286469,167.918686   C346.389862,171.133270 349.944794,176.970230 349.466675,185.645554   C349.008392,193.960114 345.698242,201.082397 339.079102,206.362579   C333.636658,210.704071 327.570801,212.444885 320.974518,209.260376   C314.557220,206.162262 311.740662,200.484863 310.868530,193.691162   C310.700745,192.384186 310.843994,191.037308 310.875305,189.267197  z"
   id="path21" />
<path
   fill="#000000"
   opacity="1.000000"
   stroke="none"
   d=" M161.363281,121.338028   C155.174347,127.633476 151.303818,134.939743 148.268890,142.744370   C147.540527,144.617432 147.037689,146.873886 144.550812,146.814926   C142.000992,146.754471 140.357758,145.068481 139.422943,142.707932   C138.664841,140.793579 138.703171,138.794037 138.745483,136.803177   C139.035324,123.171898 152.833511,109.833092 165.713898,110.683380   C167.759232,110.818405 170.053879,110.956734 170.781082,113.089195   C171.681305,115.728958 168.921494,116.174332 167.417786,117.250015   C165.533356,118.598061 163.558075,119.819130 161.363281,121.338028  z"
   id="path22" />

<path
   style="fill:#6ad7e5;fill-opacity:1;stroke:#6ad7e5;stroke-width:3.21714;stroke-opacity:1"
   d="M 435.92197,862.51907 C 355.41914,849.13498 284.74929,808.21992 242.33467,750.43967 230.6855,734.57031 224.08021,731.4428 220.71803,740.20448 c -3.68596,9.60543 -1.94041,16.95212 6.37606,26.83568 l 8.32882,9.89826 h -13.49872 c -11.64184,0 -13.16267,-0.77447 -11.05572,-5.62999 8.00846,-18.45581 1.83676,-54.96368 -14.95619,-88.47132 -11.15349,-22.25495 -33.84479,-55.39937 -50.70481,-74.06278 -10.63336,-11.77073 -10.78826,-12.32341 -5.18795,-18.5117 3.17497,-3.50828 13.56655,-10.19192 23.09242,-14.85248 14.81837,-7.24995 19.98946,-8.19473 35.80514,-6.54167 10.16697,1.06266 23.81251,4.15793 30.32344,6.87837 14.55278,6.08055 15.26184,6.09252 15.26184,0.25769 0,-2.57869 -5.06695,-8.73147 -11.25989,-13.67283 -6.19293,-4.94136 -11.25992,-11.60131 -11.25997,-14.79988 -2.9e-4,-17.65674 25.77973,-124.41709 35.16956,-145.64437 5.30193,-11.98589 5.44302,-15.2359 1.53784,-35.42523 -4.6288,-23.93036 -5.59592,-72.13008 -1.86614,-93.00564 l 2.29918,-12.86855 10.57247,15.33075 c 5.81485,8.43191 14.26637,17.75109 18.78115,20.70929 l 8.2087,5.37854 -7.05806,2.61095 c -8.53471,3.15719 -7.16052,9.18096 3.38626,14.84374 11.30101,6.06774 46.4128,3.02942 57.20599,-4.95019 13.00341,-9.61366 27.35104,-16.20131 31.81548,-14.60794 6.95629,2.48271 4.42203,5.8959 -7.60742,10.24581 -50.23236,18.16426 -73.69972,98.89152 -38.39056,132.06277 l 7.72713,7.25927 12.29901,-9.84643 c 33.71775,-26.99396 80.97734,-29.45082 129.52316,-6.7335 27.08076,12.67263 42.31001,24.27951 39.94464,30.4436 -4.69293,12.22956 22.49045,-1.13404 29.37065,-14.43889 7.78734,-15.059 6.29276,-46.80155 -3.15961,-67.10586 -15.17607,-32.59924 -66.09648,-70.89904 -101.86646,-76.61889 -6.78971,-1.08572 -12.34493,-2.9075 -12.34493,-4.0484 0,-1.14091 4.99302,-4.7633 11.09561,-8.04976 l 11.09561,-5.97538 15.05617,13.25295 c 9.72199,8.55766 21.46296,15.10396 33.14001,18.47761 9.9461,2.87355 21.92649,7.23184 26.62306,9.68509 4.76831,2.49071 17.92514,4.46044 29.79357,4.46044 26.86087,0 45.6576,-8.39925 63.0726,-28.18372 12.94386,-14.70502 17.28986,-28.02745 7.97725,-24.45386 -6.44553,2.47338 -6.19875,1.20858 3.55213,-18.20497 14.38183,-28.6336 13.53009,-68.90857 -2.10773,-99.66568 -6.53369,-12.85072 -25.43957,-31.80409 -40.94035,-41.04316 -8.90484,-5.30764 -9.8149,-6.88644 -5.86107,-10.16784 5.84428,-4.85033 20.84369,2.05073 36.92101,16.98696 7.16067,6.65244 11.36692,8.72312 12.33321,6.07147 9.7976,-26.88561 27.72168,-42.624426 48.54257,-42.624426 31.18853,0 47.13835,31.346446 27.70266,54.444486 -11.34375,13.48125 -14.80966,12.45306 -7.30145,-2.16602 10.54629,-20.53446 2.2889,-36.19278 -19.08627,-36.19278 -21.46119,0 -41.65516,30.50462 -27.80394,42.00011 13.04652,10.82765 52.86057,81.26556 52.86653,93.52997 10e-4,2.87984 -2.26821,7.12064 -5.04361,9.42399 -8.17918,6.78813 -56.4414,80.44979 -64.1689,97.93972 -3.90888,8.84712 -8.1197,22.96231 -9.35733,31.36707 -3.44523,23.39615 4.76577,19.74187 20.64288,-9.18708 17.91405,-32.6403 67.94612,-106.72767 81.49702,-120.68059 5.9635,-6.14043 11.42475,-12.80083 12.13613,-14.80091 0.71137,-2.00007 12.13079,-18.67601 25.37648,-37.05763 l 24.0831,-33.42114 16.93539,1.40442 c 13.97871,1.15922 16.93542,0.50376 16.93542,-3.75429 0,-2.83728 -5.73535,-8.08465 -12.7452,-11.66081 -10.0678,-5.13622 -13.46323,-9.16867 -16.16325,-19.19571 -1.8799,-6.98147 -7.12377,-15.60852 -11.65298,-19.17121 -10.46924,-8.2351 -7.18994,-15.686821 3.74909,-8.51929 12.197,7.99179 23.55163,6.45086 27.41898,-3.72104 4.07463,-10.717132 1.62108,-21.570695 -6.77417,-29.965915 -4.7462,-4.746221 -5.17836,-6.352441 -1.70913,-6.352441 7.27845,0 14.65952,13.145742 14.65952,26.108724 0,12.282992 5.26604,17.194932 14.59612,13.614652 7.2752,-2.79176 14.35811,-18.434742 14.35811,-31.710638 0,-6.920513 1.2994,-10.806536 3.21714,-9.621306 4.63882,2.866953 3.75034,17.971228 -1.60857,27.345658 -7.44433,13.022476 -5.89315,18.451536 6.43427,22.519956 7.51066,2.47874 11.25998,5.7123 11.25998,9.71104 0,7.53314 4.38319,10.37217 22.2592,14.41748 18.89589,4.2761 22.2345,12.27755 3.89949,9.34567 -11.10224,-1.77532 -14.52997,-0.83156 -23.06551,6.35062 -5.51395,4.6397 -15.7042,9.3439 -22.64497,10.45377 -12.61571,2.01733 -15.76593,5.30558 -9.05589,9.45263 4.65648,2.87785 2.40031,16.0976 -11.2223,65.75532 -21.08042,76.84335 -55.61618,162.89699 -80.26807,200.00607 -6.25968,9.42284 -20.15777,27.26639 -30.88464,39.65237 -18.06956,20.86438 -24.25598,33.77993 -16.18023,33.77993 1.83991,0 9.21314,-2.99355 16.38497,-6.65236 l 13.0397,-6.65233 -1.35133,76.62504 c -1.2643,71.69015 -1.90805,78.48983 -9.99538,105.5793 -23.09341,77.35386 -60.45424,126.00211 -118.22226,153.9394 -16.65283,8.05349 -41.13572,17.72072 -54.40641,21.48275 -30.58242,8.6696 -85.17307,10.96107 -120.64261,5.06403 z m 149.57322,-55.38378 c 13.22623,-5.29209 27.69478,-21.24764 24.27909,-26.77432 -1.08087,-1.7489 -9.07896,0.29205 -18.70199,4.7723 -22.79772,10.6141 -27.29943,10.11458 -17.18404,-1.90687 12.54496,-14.90885 15.73768,-32.06719 14.04054,-75.45642 -1.50314,-38.42978 -5.28038,-53.89877 -25.30451,-103.62984 -2.28828,-5.68311 -3.11161,-11.38181 -1.82965,-12.66378 1.28197,-1.28196 11.39655,-2.24556 22.47681,-2.14132 43.5294,0.40951 77.31966,31.02535 88.99416,80.63359 7.26719,30.8803 16.29425,14.61465 9.67387,-17.43108 -11.10327,-53.74513 -46.18302,-82.58627 -100.04026,-82.24912 -16.09833,0.10076 -26.30907,2.20056 -39.03748,8.02782 l -17.23696,7.89134 -7.07963,-10.80008 c -8.43952,-12.87463 -17.69885,-13.91631 -24.97608,-2.80985 -4.82255,7.36013 -5.77283,7.61384 -12.04998,3.21714 -10.52463,-7.37175 -14.93073,-5.79986 -20.43753,7.29115 -4.1364,9.83331 -4.74676,20.39321 -3.30049,57.10417 1.98481,50.38065 8.23912,84.67673 20.2104,110.82543 15.71443,34.32488 34.61353,51.6054 56.46354,51.62792 6.43572,0.007 13.46671,2.17656 15.67531,4.83774 5.20893,6.27638 19.12404,6.13238 35.36488,-0.36592 z M 455.56825,493.69984 c 11.79148,-4.48311 9.86242,-12.73796 -2.97669,-12.73796 -13.9526,0 -42.25397,-8.47848 -46.87087,-14.04152 -2.95428,-3.55969 -0.37823,-4.75158 13.89547,-6.42915 19.3354,-2.27249 34.05501,-6.96938 33.89898,-10.81679 -0.0556,-1.37085 -3.76253,-5.15964 -8.23759,-8.41953 -6.30647,-4.59401 -13.63965,-5.87051 -32.60457,-5.67555 -46.68306,0.4799 -57.53857,7.24493 -35.02111,21.8247 8.62492,5.58453 10.50888,8.62556 9.29088,14.9971 -1.15332,6.03323 0.52932,9.34002 6.86496,13.49129 20.76385,13.60501 40.08692,16.04772 61.76054,7.80741 z M 854.67923,140.74971 c -2.22764,-13.9908 -14.73314,-26.54137 -26.44602,-26.54137 -7.99771,0 -10.93411,7.37391 -4.51596,11.34054 1.84113,1.13788 6.92627,7.73802 11.30032,14.66698 5.16695,8.18497 10.3401,12.59811 14.76772,12.59811 6.07167,0 6.60536,-1.31563 4.89394,-12.06426 z"
   id="path23" /><path
   style="font-variation-settings:normal;opacity:1;vector-effect:none;fill:#6ad7e5;fill-opacity:1;stroke:#6ad7e5;stroke-width:1.7343;stroke-linecap:butt;stroke-linejoin:miter;stroke-miterlimit:4;stroke-dasharray:none;stroke-dashoffset:0;stroke-opacity:1;-inkscape-stroke:none"
   d="m 440.67045,155.46783 c -9.10149,-14.18345 -24.50923,-27.44206 -40.71607,-35.03684 -8.0216,-3.75905 -15.78943,-6.83463 -17.26184,-6.83463 -1.47241,0 -3.16794,-0.79417 -3.76783,-1.76482 -1.59146,-2.57503 12.76997,-8.55845 20.64866,-8.60287 6.29002,-0.0355 7.99227,-1.31296 24.70806,-18.542887 9.87395,-10.177642 18.4836,-17.973831 19.13257,-17.324866 0.64896,0.648966 -0.814,3.317987 -3.25104,5.93116 -5.94623,6.376006 -8.53239,11.727181 -7.26446,15.031359 1.55033,4.040078 4.56918,3.420197 19.35756,-3.974814 15.87505,-7.938413 45.23821,-19.69009 47.37283,-18.959481 0.82611,0.282749 -3.16247,4.24288 -8.86351,8.80029 -15.54764,12.428794 -13.58855,19.566731 4.20906,15.335626 18.84876,-4.481 17.76921,-4.60636 29.16394,3.386588 5.8622,4.112098 15.39362,9.237065 21.18094,11.388815 l 10.5224,3.91228 -15.67786,0.0904 c -18.66337,0.10757 -31.21912,3.10195 -47.6028,11.35264 -13.35539,6.72567 -33.26902,24.33067 -41.39074,36.59223 l -5.07889,7.66772 z"
   id="path28" /><path
   style="font-variation-settings:normal;opacity:1;vector-effect:none;fill:#6ad7e5;fill-opacity:1;stroke:#6ad7e5;stroke-width:1.7343;stroke-linecap:butt;stroke-linejoin:miter;stroke-miterlimit:4;stroke-dasharray:none;stroke-dashoffset:0;stroke-opacity:1;-inkscape-stroke:none"
   d="m 286.97749,130.78674 c -0.63212,-1.99163 -1.11869,-7.57449 -1.08126,-12.40634 0.23824,-30.756445 34.92524,-46.430337 56.03517,-25.320412 7.61677,7.616772 8.49718,12.837382 2.61675,15.516692 -3.38295,1.54137 -5.42615,0.9674 -12.47961,-3.50577 -17.95287,-11.385376 -37.73822,-2.41235 -37.51248,17.0126 0.0974,8.38139 -1.20203,12.32439 -4.06156,12.32439 -1.30224,0 -2.88489,-1.62952 -3.51701,-3.62116 z"
   id="path29" /><path
   style="font-variation-settings:normal;opacity:1;vector-effect:none;fill:#6ad7e5;fill-opacity:1;stroke:#6ad7e5;stroke-width:1.7343;stroke-linecap:butt;stroke-linejoin:miter;stroke-miterlimit:4;stroke-dasharray:none;stroke-dashoffset:0;stroke-opacity:1;-inkscape-stroke:none"
   d="m 219.51547,411.48957 c -9.98909,-21.26009 -23.19612,-54.49685 -30.16111,-75.90338 -7.19842,-22.12394 -19.3934,-65.80943 -19.3934,-69.47205 0,-1.61962 -1.22861,-5.88525 -2.73025,-9.47917 -1.50164,-3.59393 -5.44701,-18.58055 -8.76749,-33.3036 -4.6842,-20.76976 -5.58364,-27.31575 -4.01327,-29.20793 2.3622,-2.84628 0.83656,-10.6854 -2.88318,-14.81452 -1.38341,-1.53566 -3.08527,-6.13095 -3.78192,-10.21176 -1.23264,-7.22054 -1.51085,-7.48214 -10.36791,-9.74882 -11.71796,-2.99885 -17.08008,-6.60431 -22.43297,-15.08385 l -4.32716,-6.85466 -12.019086,1.11706 c -10.266614,0.95418 -12.180683,0.69594 -13.127374,-1.7711 -1.829542,-4.76771 5.327211,-8.89332 17.73178,-10.22174 21.38301,-2.28992 26.37698,-12.70132 11.77951,-24.55787 C 102.59827,91.885514 98.653995,87.241494 99.211815,83.361573 c 0.984115,-6.844983 6.036215,-4.989464 12.407555,4.557002 8.89952,13.334545 15.98522,20.474895 20.31819,20.474895 4.83378,0 15.47756,-6.5106 15.47756,-9.467335 0,-1.235991 -1.22929,-7.690733 -2.73176,-14.343871 -2.45945,-10.890769 -2.46713,-12.72997 -0.0771,-18.450223 2.48635,-5.950666 8.81466,-10.423929 12.0443,-8.513697 0.78713,0.465564 -0.13055,2.520121 -2.03931,4.565683 -10.62861,11.390428 -3.49876,34.878927 12.41213,40.890353 5.68386,2.14747 11.66193,-0.29484 18.41494,-7.523343 5.12127,-5.481866 11.0128,-5.759055 16.01822,-0.753635 l 3.74689,3.746888 -6.42088,5.15101 c -7.77135,6.23439 -10.74816,11.64979 -12.37793,22.51788 -1.58376,10.56125 -5.94719,15.98467 -16.51979,20.53288 -12.9886,5.58755 -13.68341,12.78724 -1.426,14.77634 5.16985,0.83895 12.08421,-1.1068 20.83481,-5.86308 0.61743,-0.3356 7.16345,8.98844 14.54669,20.72009 7.38324,11.73166 17.23357,26.79331 21.8896,33.47035 16.93217,24.28173 17.50359,25.38984 16.49935,31.99617 -0.51487,3.38708 -2.1401,11.62136 -3.61161,18.2984 -1.47151,6.67704 -3.61727,22.09097 -4.76835,34.25319 -2.29929,24.29403 -0.47485,51.87555 4.73207,71.53884 3.36021,12.6894 2.64477,18.75195 -5.1166,43.35739 l -6.0176,19.07725 z M 152.61801,136.14696 c 3.63212,-6.58736 8.66792,-12.8042 12.53838,-15.479 8.74758,-6.04529 7.8848,-9.6987 -2.26385,-9.58613 -8.68267,0.0963 -14.62977,3.6244 -20.4982,12.16047 -5.96103,8.67075 -4.23417,26.64012 2.3543,24.49842 0.98963,-0.3217 4.53085,-5.53889 7.86937,-11.59376 z"
   id="path30" /><path
   style="font-variation-settings:normal;opacity:1;vector-effect:none;fill:#f6d2a2;fill-opacity:1;stroke:#f6d2a2;stroke-width:0.740376;stroke-linecap:butt;stroke-linejoin:miter;stroke-miterlimit:4;stroke-dasharray:none;stroke-dashoffset:0;stroke-opacity:1;-inkscape-stroke:none"
   d="m 166.83372,768.29045 c -10.74521,-5.62446 -25.5506,-21.48627 -39.03879,-41.82432 -10.3583,-15.61868 -14.13624,-25.2703 -14.99439,-38.30663 -0.52617,-7.99317 0.77617,-14.22891 3.4834,-16.67892 3.82562,-3.46214 11.17923,-0.67872 24.21661,9.16625 10.19045,7.69515 12.46736,10.30794 16.9345,19.43264 10.50832,21.4646 17.46544,45.52926 17.59598,60.86445 0.0882,10.35565 -0.84717,11.19388 -8.19731,7.34653 z"
   id="path33" /><path
   style="font-variation-settings:normal;opacity:1;vector-effect:none;fill:#f6d2a2;fill-opacity:1;stroke:#f6d2a2;stroke-width:0.740376;stroke-linecap:butt;stroke-linejoin:miter;stroke-miterlimit:4;stroke-dasharray:none;stroke-dashoffset:0;stroke-opacity:1;-inkscape-stroke:none"
   d="m 98.629826,671.01793 c -6.200299,-14.0582 -6.606337,-17.80438 -2.907988,-26.82956 l 2.402101,-5.86191 9.525321,0.17866 c 5.23893,0.0983 10.06446,0.53551 10.72341,0.97167 1.51336,1.00169 9.96338,10.76022 13.96394,16.12631 2.83782,3.80647 8.33486,12.96118 8.33486,13.88079 0,0.22647 -1.98861,-1.48505 -4.41914,-3.80338 -6.17969,-5.89443 -11.33739,-8.1268 -18.90271,-8.18153 -10.05857,-0.0728 -13.85969,3.68428 -14.97039,14.79679 l -0.58859,5.88881 z"
   id="path34" /><path
   style="font-variation-settings:normal;opacity:1;vector-effect:none;fill:#f6d2a2;fill-opacity:1;stroke:#f6d2a2;stroke-width:0.740376;stroke-linecap:butt;stroke-linejoin:miter;stroke-miterlimit:4;stroke-dasharray:none;stroke-dashoffset:0;stroke-opacity:1;-inkscape-stroke:none"
   d="m 179.60476,711.3044 c -10.74217,-25.64948 -21.97901,-45.62 -36.33652,-64.57861 -7.00817,-9.25405 -12.22474,-13.85033 -20.07483,-17.68777 -12.63472,-6.17635 -18.31532,-14.64133 -21.30653,-31.75007 l -0.42254,-2.41675 2.07758,1.07435 c 9.15012,4.73172 23.94911,18.87681 37.62809,35.96552 20.0112,24.99932 35.99461,51.78394 44.99215,75.39678 3.06998,8.05678 3.23463,9.98202 0.98827,11.55544 -3.09028,2.16451 -3.75039,1.50324 -7.54567,-7.55889 z"
   id="path35" /><path
   style="font-variation-settings:normal;opacity:1;vector-effect:none;fill:#f6d2a2;fill-opacity:1;stroke:#f6d2a2;stroke-width:0.740376;stroke-linecap:butt;stroke-linejoin:miter;stroke-miterlimit:4;stroke-dasharray:none;stroke-dashoffset:0;stroke-opacity:1;-inkscape-stroke:none"
   d="m 90.531642,626.96245 c -5.276318,-5.66589 -15.243484,-23.20226 -13.932574,-24.51317 0.221257,-0.22125 1.27619,0.0654 2.344294,0.63705 6.475064,3.46535 19.696191,23.35286 17.380118,26.14356 -1.503772,1.81194 -2.273601,1.51056 -5.791838,-2.26744 z"
   id="path36" /><path
   style="font-variation-settings:normal;opacity:1;vector-effect:none;fill:#f6d2a2;fill-opacity:1;stroke:#f6d2a2;stroke-width:0.40568;stroke-linecap:butt;stroke-linejoin:miter;stroke-miterlimit:4;stroke-dasharray:none;stroke-dashoffset:0;stroke-opacity:1;-inkscape-stroke:none"
   d="m 78.586167,638.3493 c -1.564413,-1.74001 -5.969362,-9.41708 -5.969362,-10.40358 0,-0.67267 3.42006,2.99521 4.906796,5.26234 1.491439,2.27431 3.416254,6.67867 3.070046,7.02488 -0.09092,0.0909 -0.994282,-0.75672 -2.00748,-1.88364 z"
   id="path37" /><path
   style="font-variation-settings:normal;opacity:1;vector-effect:none;fill:#f6d2a2;fill-opacity:1;stroke:#f6d2a2;stroke-width:1.75562;stroke-linecap:butt;stroke-linejoin:miter;stroke-miterlimit:4;stroke-dasharray:none;stroke-dashoffset:0;stroke-opacity:1;-inkscape-stroke:none"
   d="m 524.05288,780.65976 c -12.08503,-7.36997 -24.87407,-27.83598 -32.171,-51.48252 -3.57642,-11.58979 -3.57954,-11.83804 -0.34685,-27.61658 4.51805,-22.05234 10.63615,-30.03553 23.01841,-30.03553 15.00737,0 34.95601,38.57296 34.95601,67.59141 0,14.20646 -6.18099,36.1369 -11.50441,40.8182 -5.43474,4.77919 -7.15748,4.86871 -13.95216,0.72502 z"
   id="path38" /><path
   style="font-variation-settings:normal;opacity:1;vector-effect:none;fill:#f6d2a2;fill-opacity:1;stroke:#f6d2a2;stroke-width:0.558675;stroke-linecap:butt;stroke-linejoin:miter;stroke-miterlimit:4;stroke-dasharray:none;stroke-dashoffset:0;stroke-opacity:1;-inkscape-stroke:none"
   d="m 565.84344,750.46407 c -0.12771,-0.39707 0.01,-5.37292 0.30562,-11.05744 1.14713,-22.04526 -1.80249,-54.14191 -6.67138,-72.5955 -2.55857,-9.69728 -9.72794,-22.79842 -13.12385,-23.98224 -1.55966,-0.54369 -1.73382,-0.47256 -2.2672,0.92601 -0.91156,2.39019 -0.70443,7.69732 0.56063,14.36449 0.64134,3.37998 1.79735,11.17281 2.56893,17.3174 2.01852,16.07493 1.92901,16.51825 -1.76722,8.7526 -4.66944,-9.8103 -12.12462,-19.04628 -19.16492,-23.74278 -5.08959,-3.3952 -9.13204,-4.44235 -16.11821,-4.1752 -5.1423,0.19663 -6.42208,0.4489 -9.31352,1.83585 -6.24149,2.9939 -12.88565,11.3505 -15.94482,20.05439 -0.6168,1.75491 -1.41207,5.85235 -1.76728,9.10542 -0.70544,6.46068 -0.96723,6.41414 -2.40962,-0.42837 -1.98512,-9.41716 -4.14421,-28.2895 -5.61854,-49.11096 -0.9818,-13.86565 -1.22017,-40.10729 -0.38822,-42.73865 l 0.52991,-1.67603 1.72518,2.69959 c 2.47647,3.87521 5.24979,11.13362 7.9339,20.76477 6.28594,22.55531 8.25064,26.1203 13.33849,24.20286 1.71549,-0.6465 2.19487,-1.21421 2.99555,-3.54746 1.27061,-3.70268 1.23322,-7.60945 -0.16132,-16.8537 -1.42822,-9.46756 -1.55993,-20.53556 -0.31206,-26.22405 0.93904,-4.28068 2.48387,-8.58412 3.08149,-8.58412 0.63209,0 4.04098,5.55929 5.95519,9.71185 2.76889,6.00668 4.44378,12.97213 7.43021,30.90058 1.7099,10.26504 3.06146,16.83599 3.64662,17.72907 1.09711,1.67439 3.29381,2.35713 5.30654,1.64929 2.59546,-0.91277 3.68799,-3.40702 4.76802,-10.88542 2.09154,-14.48245 7.23626,-34.42791 9.02156,-34.97558 0.32022,-0.0982 2.43553,3.91024 4.70067,8.90771 15.09425,33.30161 23.00232,58.96063 26.04507,84.50747 1.90714,16.01218 0.77287,45.10696 -2.08973,53.6032 -1.25597,3.72775 -2.30789,5.0616 -2.79569,3.54495 z"
   id="path39" /><path
   style="font-variation-settings:normal;opacity:1;vector-effect:none;fill:#ffffff;fill-opacity:1;stroke:#ffffff;stroke-width:0.951677;stroke-linecap:butt;stroke-linejoin:miter;stroke-miterlimit:4;stroke-dasharray:none;stroke-dashoffset:0;stroke-opacity:1;-inkscape-stroke:none"
   d="m 532.61535,306.87053 c -25.58969,-4.29501 -52.59613,-21.96384 -65.6493,-42.95073 -14.08439,-22.64489 -17.92032,-52.21186 -9.97876,-76.91526 9.95424,-30.9641 35.518,-53.72031 67.85047,-60.39876 10.59393,-2.18824 26.06378,-2.00681 36.42393,0.42718 16.06167,3.7735 36.53097,16.21399 46.72014,28.39479 12.8364,15.34547 20.27,35.61166 21.73204,59.24786 1.51583,24.50601 -6.66922,46.05425 -24.78217,65.24237 -20.43992,21.65323 -46.35141,31.31053 -72.31635,26.95255 z m -7.02112,-97.35736 c 8.85215,-3.70952 14.28564,-12.76831 14.37577,-23.9675 0.0742,-9.2235 -2.92932,-14.45586 -10.39481,-18.10838 -4.39373,-2.14966 -6.06537,-2.48408 -10.05496,-2.01157 -14.35816,1.70051 -22.27167,13.98668 -18.59781,28.87417 0.85775,3.47582 2.68832,7.79959 4.06794,9.60836 4.56071,5.9794 13.74692,8.47834 20.60387,5.60492 z"
   id="path40" /><path
   style="font-variation-settings:normal;opacity:1;vector-effect:none;fill:#ffffff;fill-opacity:1;stroke:#ffffff;stroke-width:0.951677;stroke-linecap:butt;stroke-linejoin:miter;stroke-miterlimit:4;stroke-dasharray:none;stroke-dashoffset:0;stroke-opacity:1;-inkscape-stroke:none"
   d="m 328.80443,297.55764 c -22.97463,-6.93416 -42.15825,-24.90507 -51.3311,-48.08613 -5.25661,-13.28417 -6.52477,-20.64707 -5.99742,-34.82092 0.57541,-15.46575 3.04557,-25.07401 10.16572,-39.54201 9.49308,-19.28973 23.92002,-32.27888 45.54677,-41.00759 40.46044,-16.33011 84.94294,1.71657 103.56218,42.01547 5.43342,11.75991 6.48107,18.08692 5.06822,30.60806 -0.89969,7.97321 -0.95021,12.7802 -0.19944,18.97166 0.55306,4.56095 0.76894,8.90926 0.47974,9.66291 -0.41582,1.0836 -1.73938,1.24045 -6.3264,0.74969 -14.28176,-1.52799 -21.83327,-1.69391 -30.62406,-0.6729 -11.80767,1.37142 -19.76835,3.96268 -26.99106,8.78583 -12.69831,8.4796 -16.35122,21.75241 -10.18687,37.0138 l 2.33226,5.77412 -2.34328,2.78482 c -1.2888,1.53166 -5.09667,4.14032 -8.46192,5.79704 -7.77326,3.82676 -16.28359,4.50438 -24.69334,1.96615 z m 5.94068,-87.80776 c 3.91475,-1.47512 10.4673,-8.44379 12.68287,-13.48833 3.25875,-7.41969 3.14184,-17.18499 -0.26741,-22.33672 -6.35039,-9.59609 -20.92815,-10.37813 -29.62671,-1.58935 -3.63936,3.6771 -5.00313,6.52567 -6.42879,13.42801 -3.54987,17.18678 8.69986,29.61598 23.64004,23.98639 z"
   id="path41" /><path
   style="font-variation-settings:normal;opacity:1;vector-effect:none;fill:#ffffff;fill-opacity:1;stroke:#ffffff;stroke-width:0.951677;stroke-linecap:butt;stroke-linejoin:miter;stroke-miterlimit:4;stroke-dasharray:none;stroke-dashoffset:0;stroke-opacity:1;-inkscape-stroke:none"
   d="m 383.33216,365.78013 c -3.24406,-1.18661 -5.6519,-7.30109 -7.78737,-19.7753 -1.84371,-10.76992 -1.94477,-15.70772 -0.34611,-16.91122 1.67956,-1.26439 20.09866,-7.9026 21.92743,-7.9026 0.83284,0 1.74134,0.36744 2.0189,0.81653 0.27755,0.44909 1.14249,8.90712 1.92208,18.79562 0.77959,9.8885 1.70013,19.36186 2.04564,21.0519 0.5564,2.72155 0.33601,3.1839 -1.92787,4.04463 -3.19217,1.21366 -14.41328,1.13851 -17.8527,-0.11956 z"
   id="path42" /><path
   style="font-variation-settings:normal;opacity:1;vector-effect:none;fill:#ffffff;fill-opacity:1;stroke:#ffffff;stroke-width:0.951677;stroke-linecap:butt;stroke-linejoin:miter;stroke-miterlimit:4;stroke-dasharray:none;stroke-dashoffset:0;stroke-opacity:1;-inkscape-stroke:none"
   d="m 424.36809,365.70972 c -3.74685,-1.39763 -5.55919,-10.3948 -6.31079,-31.3292 -0.66018,-18.38822 -1.35033,-17.63008 13.70992,-15.06053 17.11296,2.91978 24.15441,4.7484 24.80411,6.44149 0.70066,1.8259 -2.12549,22.30953 -4.176,30.26723 -2.51693,9.76777 -2.46127,9.73079 -15.15588,10.07116 -6.06784,0.16269 -11.85995,-0.0129 -12.87136,-0.39015 z"
   id="path43" /><path
   style="font-variation-settings:normal;opacity:1;vector-effect:none;fill:#f6d2a2;fill-opacity:1;stroke:#ffffff;stroke-width:0.951677;stroke-linecap:butt;stroke-linejoin:miter;stroke-miterlimit:4;stroke-dasharray:none;stroke-dashoffset:0;stroke-opacity:1;-inkscape-stroke:none"
   d="m 395.42182,286.29896 c -2.09369,-0.88665 -5.41266,-2.6115 -7.3755,-3.83301 -2.96568,-1.84561 -3.56878,-2.75688 -3.56878,-5.39236 0,-3.54545 2.38965,-6.32146 5.44164,-6.32146 1.0785,0 2.97193,-0.82325 4.20761,-1.82943 l 2.24671,-1.82943 -2.67907,-1.02561 c -1.47348,-0.56408 -4.05479,-1.0256 -5.73622,-1.0256 -3.93214,0 -7.28738,-2.36513 -7.28738,-5.13694 0,-3.11867 7.41088,-6.89086 16.22438,-8.25832 11.34126,-1.75966 28.60083,-0.70705 36.43865,2.22227 5.88027,2.19771 11.09933,5.68128 11.09933,7.40849 0,1.40128 -8.60832,2.72534 -20.93689,3.22035 -7.06621,0.28372 -13.82873,0.79087 -15.02783,1.12701 -2.62625,0.73621 -2.30108,2.30343 0.82782,3.98985 2.74237,1.47808 16.89821,0.83065 26.53749,-1.21372 7.01921,-1.48868 9.55109,-0.74364 9.55109,2.81056 0,1.89869 -1.35826,3.02909 -7.85134,6.53422 -12.00596,6.48113 -20.78924,9.32294 -30.21574,9.77622 -6.14902,0.29569 -9.00231,0.002 -11.89597,-1.22309 z"
   id="path44" /><path
   style="font-variation-settings:normal;opacity:1;vector-effect:none;fill:#6ad7e5;fill-opacity:1;stroke:#ffffff;stroke-width:0.280926;stroke-linecap:butt;stroke-linejoin:miter;stroke-miterlimit:4;stroke-dasharray:none;stroke-dashoffset:0;stroke-opacity:1;-inkscape-stroke:none"
   d="m 879.0444,120.149 c -0.72186,-1.41496 -2.89016,-3.54956 -4.6624,-4.58991 l -1.40463,-0.82456 1.02476,0.1782 c 1.53516,0.26696 3.86365,-0.3292 5.85537,-1.49915 1.09333,-0.64223 3.49395,-2.70873 6.2456,-5.37634 7.95643,-7.71344 11.82589,-12.858842 14.8772,-19.782897 1.6574,-3.760976 2.32501,-4.540264 3.85528,-4.500139 1.30473,0.03421 3.26733,1.067036 4.05723,2.135129 2.05598,2.780067 -0.24305,11.679335 -4.3184,16.715987 -2.11953,2.6195 -4.09759,4.06643 -12.16064,8.89542 -7.67834,4.59858 -10.36755,6.52791 -11.90066,8.53796 l -0.91378,1.19805 z"
   id="path45" /></svg>
