<?xml version="1.0" encoding="UTF-8" standalone="no"?>
<svg
   version="1.1"
   id="Layer_1"
   x="0px"
   y="0px"
   width="323.6904"
   viewBox="0 0 323.6904 253.11102"
   enable-background="new 0 0 1280 640"
   xml:space="preserve"
   sodipodi:docname="gobra-verified.svg"
   inkscape:version="1.4 (e7c3feb100, 2024-10-09)"
   height="253.11102"
   xmlns:inkscape="http://www.inkscape.org/namespaces/inkscape"
   xmlns:sodipodi="http://sodipodi.sourceforge.net/DTD/sodipodi-0.dtd"
   xmlns="http://www.w3.org/2000/svg"
   xmlns:svg="http://www.w3.org/2000/svg"><defs
   id="defs467" /><sodipodi:namedview
   id="namedview465"
   pagecolor="#ffffff"
   bordercolor="#000000"
   borderopacity="0.25"
   inkscape:showpageshadow="2"
   inkscape:pageopacity="0.0"
   inkscape:pagecheckerboard="true"
   inkscape:deskcolor="#d1d1d1"
   showgrid="false"
   inkscape:zoom="1.8294207"
   inkscape:cx="123.53637"
   inkscape:cy="200.33664"
   inkscape:window-width="1296"
   inkscape:window-height="1163"
   inkscape:window-x="0"
   inkscape:window-y="0"
   inkscape:window-maximized="0"
   inkscape:current-layer="Layer_1" />

<path
   fill="#fef8f0"
   opacity="1"
   stroke="none"
   d="m 283.24182,31.868225 c -22.54817,3.0753 -34.17159,-3.40362 -39.31316,-21.22298 12.27867,-2.5810901 37.17493,6.31105 43.26173,15.85017 0.48858,0.76567 -1.96687,3.40984 -3.94857,5.37281 z"
   id="path456"
   style="stroke-width:2.38308" /><path
   fill="#eb8c03"
   opacity="1"
   stroke="none"
   d="m 17.843348,170.42688 c -30.29215,-19.7172 -17.41171978,-40.23274 4.59878,-40.47596 8.52476,-0.0942 28.06156,10.79746 39.74072,20.55637 23.50863,19.64342 46.777902,38.62327 47.298922,37.56518 1.60559,-3.2606 3.94841,-8.02959 5.62235,-11.42771 9.67358,-19.63756 28.06697,-57.11621 28.54294,-58.10292 12.16871,-25.226335 25.25836,-49.925205 42.29938,-72.285885 11.9967,-15.74172 25.33566,-30.10979 43.23333,-39.3769001 21.54377,-11.1550199 45.52649,-8.5930899 61.8761,6.5922101 9.4032,8.73349 14.50752,19.70716 15.96682,32.40621 4.7276,1.07905 8.6272,0.8887 11.807,-3.18976 0.9162,-1.1752 3.2025,-1.28212 4.8607,-1.8788 -0.6515,1.62564 -1.1746,3.32057 -2.0012,4.85168 -0.5216,0.9663 -1.4967,1.68779 -2.4813,2.7486 1.5205,1.59773 3.0334,2.90376 4.1503,4.48891 0.5084,0.72137 0.2332,1.99473 0.3135,3.0177 -1.0541,-0.007 -2.7347,0.40879 -3.0681,-0.085 -5.0239,-7.43963 -12.6479,-5.14962 -19.5216,-5.26044 -10.99469,-0.17728 -22.02313,0.46074 -32.98553,-0.1599 -19.56116,-1.10745 -34.85828,7.03987 -47.80048,20.71254 -16.47821,17.40816 -27.58562,38.268365 -37.80053,59.666385 -8.78155,18.39543 -40.23937,90.85609 -57.90382,120.77556 -3.09602,5.24393 -10.82023,-4.79413 -12.49612,-1.6429 M 266.5285,23.243315 c 0.4563,-0.74324 1.48666,-1.8528 1.28164,-2.17409 -2.55416,-4.00285 -13.00125,-7.7342 -18.15368,-6.65112 2.15753,7.47745 7.035,10.19615 16.87204,8.82521 z"
   id="path444"
   sodipodi:nodetypes="csssssssscscscsccsssssccscc"
   style="fill:#31a431;fill-opacity:1" />









</svg>
