<?xml version="1.0" encoding="UTF-8" standalone="no"?>
<!-- Created with Inkscape (http://www.inkscape.org/) -->

<svg
   width="210mm"
   height="297mm"
   viewBox="0 0 210 297"
   version="1.1"
   id="svg5"
   inkscape:version="1.2.2 (b0a8486541, 2022-12-01)"
   sodipodi:docname="black-box.svg"
   xmlns:inkscape="http://www.inkscape.org/namespaces/inkscape"
   xmlns:sodipodi="http://sodipodi.sourceforge.net/DTD/sodipodi-0.dtd"
   xmlns="http://www.w3.org/2000/svg"
   xmlns:svg="http://www.w3.org/2000/svg">
  <sodipodi:namedview
     id="namedview7"
     pagecolor="#ffffff"
     bordercolor="#000000"
     borderopacity="0.25"
     inkscape:showpageshadow="2"
     inkscape:pageopacity="0.0"
     inkscape:pagecheckerboard="true"
     inkscape:deskcolor="#d1d1d1"
     inkscape:document-units="mm"
     showgrid="false"
     inkscape:zoom="0.81428355"
     inkscape:cx="135.08808"
     inkscape:cy="355.52726"
     inkscape:window-width="1920"
     inkscape:window-height="1125"
     inkscape:window-x="0"
     inkscape:window-y="0"
     inkscape:window-maximized="1"
     inkscape:current-layer="layer1" />
  <defs
     id="defs2">
    <marker
       style="overflow:visible"
       id="Arrow3"
       refX="0"
       refY="0"
       orient="auto-start-reverse"
       inkscape:stockid="Arrow3"
       markerWidth="4.2071066"
       markerHeight="7"
       viewBox="0 0 4.2071068 7"
       inkscape:isstock="true"
       inkscape:collect="always"
       preserveAspectRatio="xMidYMid">
      <path
         style="fill:none;stroke:context-stroke;stroke-width:1;stroke-linecap:round"
         d="M 3,-3 0,0 3,3"
         id="arrow3"
         transform="rotate(180,0.125,0)"
         sodipodi:nodetypes="ccc" />
    </marker>
    <clipPath
       id="clipPath8352">
      <path
         clip-rule="nonzero"
         d="m 196,28 h 4 v 7.96875 h -4 z m 0,0"
         id="path3390" />
    </clipPath>
    <marker
       style="overflow:visible"
       id="Arrow3-6"
       refX="0"
       refY="0"
       orient="auto-start-reverse"
       inkscape:stockid="Arrow3"
       markerWidth="4.2071066"
       markerHeight="7"
       viewBox="0 0 4.2071068 7"
       inkscape:isstock="true"
       inkscape:collect="always"
       preserveAspectRatio="xMidYMid">
      <path
         style="fill:none;stroke:context-stroke;stroke-width:1;stroke-linecap:round"
         d="M 3,-3 0,0 3,3"
         id="arrow3-0"
         transform="rotate(180,0.125,0)"
         sodipodi:nodetypes="ccc" />
    </marker>
  </defs>
  <g
     inkscape:label="Layer 1"
     inkscape:groupmode="layer"
     id="layer1">
    <rect
       style="fill:#000000;stroke:#ffffff;stroke-width:2"
       id="rect184"
       width="72.604111"
       height="72.604111"
       x="60.809086"
       y="66.212532" />
    <text
       xml:space="preserve"
       style="font-weight:500;font-size:28.2223px;font-family:'Roboto Condensed';-inkscape-font-specification:'Roboto Condensed,  Medium';fill:#ffffff;stroke:#ffffff;stroke-width:2"
       x="72.178535"
       y="110.27399"
       id="text2350"><tspan
         sodipodi:role="line"
         id="tspan2348"
         style="stroke:none;stroke-width:2"
         x="72.178535"
         y="110.27399">func</tspan></text>
    <rect
       style="fill:#000000;stroke-width:1.4006"
       id="rect628"
       width="7.7389584"
       height="9.5565796"
       x="57.700531"
       y="97.12175" />
    <g
       id="g981"
       transform="matrix(0,-6.815394,6.815394,0,-633.66165,374.46414)">
      <g
         fill="#000000"
         fill-opacity="1"
         id="g121"
         transform="matrix(0.352778,0,0,0.352778,-37.259946,90.841159)">
        <g
           id="use119"
           transform="translate(182.806,24.124001)">
          <path
             d="m 4.578125,-0.921875 c 0,-0.21875 0,-0.28125 -0.125,-0.28125 -0.609375,0 -1.609375,-0.078125 -2.5,-0.515625 C 0.875,-2.265625 0.46875,-2.890625 0.21875,-3.28125 0.1875,-3.328125 0.125,-3.328125 0,-3.328125 c -0.234375,0 -0.234375,0.015625 -0.234375,0.25 V -2.90625 C 1.109375,-0.46875 3.359375,0 4.375,0 4.578125,0 4.578125,-0.015625 4.578125,-0.28125 Z m 0,0"
             id="path221" />
        </g>
      </g>
      <path
         fill-rule="nonzero"
         fill="#000000"
         fill-opacity="1"
         d="m 28.811486,99.351928 h 1.608173 v -0.42168 h -1.608173 z m 0,0"
         id="path123"
         style="stroke-width:0.352778" />
      <g
         fill="#000000"
         fill-opacity="1"
         id="g129"
         transform="matrix(0.352778,0,0,0.352778,-37.259946,90.841159)">
        <g
           id="use125"
           transform="translate(191.847,24.124001)">
          <path
             d="M 4.71875,1.71875 C 3.375,-0.734375 1.125,-1.203125 0.109375,-1.203125 c -0.203125,0 -0.203125,0.015625 -0.203125,0.28125 v 0.640625 c 0,0.234375 0,0.28125 0.140625,0.28125 0.59375,0.015625 1.59375,0.09375 2.484375,0.53125 1.078125,0.53125 1.484375,1.15625 1.734375,1.546875 0.03125,0.0625 0.09375,0.0625 0.21875,0.0625 C 4.71875,2.140625 4.71875,2.125 4.71875,1.875 Z m 0,0"
             id="path225" />
        </g>
        <g
           id="use127"
           transform="translate(196.33017,24.124001)">
          <path
             d="m 4.578125,-0.921875 c 0,-0.265625 0,-0.28125 -0.203125,-0.28125 -1.015625,0 -3.265625,0.484375 -4.609375,2.921875 V 1.875 c 0,0.25 0,0.265625 0.234375,0.265625 0.1875,0 0.203125,-0.015625 0.25,-0.09375 C 1.0625,0.75 2.4375,0.046875 4.46875,0 4.578125,0 4.578125,-0.0625 4.578125,-0.28125 Z m 0,0"
             id="path229" />
        </g>
      </g>
      <path
         fill-rule="nonzero"
         fill="#000000"
         fill-opacity="1"
         d="m 33.582258,99.351928 h 1.60817 v -0.42168 h -1.60817 z m 0,0"
         id="path131"
         style="stroke-width:0.352778" />
      <g
         fill="#000000"
         fill-opacity="1"
         id="g135"
         transform="matrix(0.352778,0,0,0.352778,-37.259946,90.841159)">
        <g
           id="use133"
           transform="translate(205.371,24.124001)">
          <path
             d="m 4.71875,-3.078125 c 0,-0.234375 0,-0.25 -0.234375,-0.25 -0.1875,0 -0.203125,0.015625 -0.25,0.078125 -0.8125,1.3125 -2.1875,2.015625 -4.21875,2.046875 -0.109375,0 -0.109375,0.078125 -0.109375,0.28125 v 0.640625 c 0,0.265625 0,0.28125 0.203125,0.28125 C 1.125,0 3.375,-0.484375 4.71875,-2.90625 Z m 0,0"
             id="path233" />
        </g>
      </g>
    </g>
    <path
       style="fill:#000000;stroke:#000000;stroke-width:2;marker-end:url(#Arrow3)"
       d="M -3.1388536,102.02732 H 53.332574"
       id="path1142" />
    <path
       style="fill:#000000;stroke:#000000;stroke-width:2;marker-end:url(#Arrow3-6)"
       d="m 133.6163,102.82441 h 56.47142"
       id="path1142-6" />
  </g>
</svg>
