<?xml version="1.0" encoding="UTF-8" standalone="no"?>
<svg
   version="1.1"
   id="Layer_1"
   x="0px"
   y="0px"
   width="100%"
   viewBox="0 0 1280 640"
   enable-background="new 0 0 1280 640"
   xml:space="preserve"
   sodipodi:docname="gobra.svg"
   inkscape:version="1.2.2 (b0a8486541, 2022-12-01)"
   xmlns:inkscape="http://www.inkscape.org/namespaces/inkscape"
   xmlns:sodipodi="http://sodipodi.sourceforge.net/DTD/sodipodi-0.dtd"
   xmlns="http://www.w3.org/2000/svg"
   xmlns:svg="http://www.w3.org/2000/svg"><defs
   id="defs467" /><sodipodi:namedview
   id="namedview465"
   pagecolor="#ffffff"
   bordercolor="#000000"
   borderopacity="0.25"
   inkscape:showpageshadow="2"
   inkscape:pageopacity="0.0"
   inkscape:pagecheckerboard="true"
   inkscape:deskcolor="#d1d1d1"
   showgrid="false"
   inkscape:zoom="0.84033819"
   inkscape:cx="724.70823"
   inkscape:cy="370.6841"
   inkscape:window-width="1920"
   inkscape:window-height="1125"
   inkscape:window-x="0"
   inkscape:window-y="0"
   inkscape:window-maximized="1"
   inkscape:current-layer="Layer_1" />

<path
   fill="#EB8C03"
   opacity="1.000000"
   stroke="none"
   d=" M308.573975,489.529480   C326.545959,489.816498 344.086884,489.993530 360.838440,483.847656   C368.517822,481.030212 374.726837,476.379883 375.300781,467.190399   C375.935638,457.025787 371.488678,449.508972 360.906158,447.340149   C347.294250,444.550507 333.337860,442.971619 319.452698,442.099335   C300.124390,440.885162 280.850494,439.887054 262.535645,432.860504   C250.657669,428.303528 239.792557,422.272675 234.032410,410.046661   C226.092926,393.195007 230.669342,373.820770 245.583649,360.795654   C247.210785,359.374603 248.942780,358.073608 251.522461,355.994537   C250.106262,354.974365 248.681824,354.179901 247.538544,353.090424   C224.814590,331.435364 218.777588,304.858337 226.391327,275.305054   C233.622345,247.237320 253.233109,230.542480 280.625397,223.412704   C306.727203,216.618835 332.486877,218.315247 356.971436,230.684219   C367.264923,235.884216 375.589539,243.464279 382.872894,253.218750   C383.774292,251.562180 384.500214,250.353195 385.110352,249.088348   C397.279114,223.862030 410.368713,199.163147 427.409729,176.802460   C439.406433,161.060745 452.745392,146.692673 470.643066,137.425568   C492.186829,126.270546 516.169556,128.832474 532.519165,144.017776   C541.922363,152.751266 547.026672,163.724930 548.486023,176.423981   C553.213623,177.503036 557.113159,177.312683 560.292969,173.234222   C561.209167,172.059021 563.495483,171.952103 565.153687,171.355423   C564.502197,172.981064 563.979065,174.675995 563.152466,176.207108   C562.630859,177.173401 561.655823,177.894897 560.671143,178.955704   C562.191650,180.553436 563.704590,181.859467 564.821533,183.444611   C565.329834,184.165985 565.054688,185.439346 565.134949,186.462311   C564.080933,186.455154 562.400330,186.871109 562.066895,186.377350   C557.042969,178.937729 549.419006,181.227737 542.545288,181.116913   C531.550598,180.939636 520.522156,181.577652 509.559753,180.957016   C489.998596,179.849564 474.701477,187.996887 461.759277,201.669556   C445.281067,219.077713 434.173645,239.937912 423.958740,261.335938   C413.638062,282.955505 404.084656,304.981079 392.846924,326.111755   C381.868439,346.754883 366.349579,363.439636 342.874451,370.204407   C325.019379,375.349701 306.776093,375.817902 288.468842,372.541504   C286.668732,372.219330 284.909882,371.672852 283.115814,371.309845   C276.455719,369.962250 270.396790,372.866028 268.202515,378.421936   C265.712494,384.726624 267.920929,392.412994 274.458618,394.887024   C282.139252,397.793579 290.352936,399.930084 298.507477,400.815125   C316.373871,402.754211 334.387604,403.315979 352.267975,405.152527   C368.218536,406.790833 383.905182,410.008820 397.902161,418.531799   C409.189331,425.404755 416.081299,435.291290 418.286530,448.465576   C423.567780,480.016449 409.620789,503.572815 379.478668,513.993896   C363.897003,519.380981 347.759796,521.516724 331.427582,522.376038   C307.063171,523.657837 282.769775,523.168579 258.983215,516.969360   C252.749924,515.344788 246.604645,512.991882 240.800720,510.184235   C223.871246,501.994598 214.355789,488.443787 214.360779,469.439758   C214.365387,451.873444 205.537094,440.319183 191.169525,432.038818   C175.425842,422.965363 157.998779,419.406982 140.255356,417.037292   C136.361801,416.517242 132.442322,416.191528 128.338074,414.859650   C129.788712,414.436859 131.213181,413.818604 132.693893,413.620300   C160.116516,409.946960 187.440857,409.296936 214.580338,416.015930   C238.795746,422.010956 254.962463,439.530487 258.132263,464.275269   C259.690491,476.439423 266.808441,483.360992 277.981537,485.731171   C287.846344,487.823761 298.053711,488.301605 308.573975,489.529480  M282.840668,333.709076   C303.370941,348.343109 331.630035,344.279602 344.378113,324.639160   C351.621613,313.479309 352.970917,301.001892 351.071930,288.115112   C348.642426,271.627686 340.391449,259.141174 324.011749,254.262039   C306.560394,249.063660 290.168701,251.461929 277.433929,265.933868   C262.873962,282.479950 263.391602,318.298523 282.840668,333.709076  M507.991791,153.789825   C508.448090,153.046585 509.478455,151.937027 509.273438,151.615738   C506.719269,147.612885 496.272186,143.881531 491.119751,144.964615   C493.277283,152.442062 498.154755,155.160767 507.991791,153.789825  z"
   id="path444" />
<path
   fill="#EB8C04"
   opacity="1.000000"
   stroke="none"
   d=" M748.586548,434.286896   C731.207397,433.134888 720.817627,429.658142 698.038940,417.478943   C697.773071,417.608734 697.303345,417.701538 697.271362,417.875061   C695.360840,428.235840 688.947021,431.280609 679.059204,429.772308   C674.520264,429.079926 669.787964,429.654419 664.719727,429.654419   C664.719727,329.756165 664.719727,230.231918 664.719727,130.423279   C677.590393,130.423279 690.347595,130.423279 703.756042,130.423279   C703.756042,167.466675 703.756042,204.467545 703.756042,240.636017   C713.090820,235.987610 721.804260,230.045670 731.433594,227.154266   C760.270142,218.495499 787.908203,220.765915 811.945374,240.892685   C826.581421,253.147736 834.489136,269.719818 838.303589,288.012665   C844.231079,316.438721 844.813599,345.026154 835.894592,372.978821   C826.249695,403.206848 807.156067,424.642822 775.293762,432.132568   C766.837585,434.120331 757.807129,433.665009 748.586548,434.286896  M793.854858,373.259094   C795.000244,370.677979 796.373169,368.172119 797.255249,365.503967   C805.171265,341.559570 804.837952,317.342224 798.637756,293.204834   C795.625061,281.476257 789.278931,271.492920 778.535339,265.056610   C746.191040,245.679794 705.623962,267.990723 704.145325,306.523712   C703.207520,330.963135 703.855774,355.465240 703.961182,379.938477   C703.967529,381.410767 705.104431,383.640381 706.330627,384.223389   C715.307251,388.491302 724.118713,393.564941 733.587463,396.251526   C759.368225,403.566376 781.068604,395.024445 793.854858,373.259094  z"
   id="path446" />
<path
   fill="#EB8C04"
   opacity="1.000000"
   stroke="none"
   d=" M1092.595703,223.309265   C1106.736694,224.857758 1120.015259,227.745529 1131.947510,235.028320   C1152.698730,247.693741 1162.033081,267.235382 1164.833740,290.494446   C1165.627441,297.086395 1165.738281,303.788940 1165.752808,310.441681   C1165.834839,348.100372 1165.792603,385.759308 1165.792725,423.418182   C1165.792725,425.236359 1165.792725,427.054535 1165.792725,429.611206   C1157.582642,429.611206 1149.645386,429.777008 1141.728882,429.444641   C1140.439819,429.390503 1138.744751,427.350647 1138.092041,425.855499   C1135.598633,420.144196 1133.454590,414.280304 1131.057739,408.160889   C1122.665771,417.238708 1112.754883,424.371033 1100.863403,428.369385   C1079.486328,435.557068 1058.017212,436.369446 1036.864502,427.801849   C1013.109009,418.180023 999.492737,396.360016 1000.510803,370.602936   C1001.713623,340.170258 1019.482056,318.838074 1050.315918,312.179047   C1061.302124,309.806396 1072.695068,308.845917 1083.952637,308.320648   C1097.741699,307.677216 1111.583618,308.167328 1125.338013,308.167328   C1131.349731,286.718475 1115.772705,262.751984 1093.682983,258.907745   C1071.338379,255.019135 1049.959595,259.084808 1028.928711,266.373901   C1025.338135,267.618378 1021.746338,268.859711 1017.672546,270.269470   C1014.330811,260.622040 1011.088745,251.262329 1007.724365,241.549606   C1034.347290,227.608505 1062.365845,221.469604 1092.595703,223.309265  M1073.504639,399.298523   C1079.252563,398.510651 1085.177734,398.362305 1090.718872,396.827606   C1119.412109,388.880554 1128.469604,360.562012 1125.611450,342.296631   C1108.003784,342.296631 1090.392456,342.009674 1072.800659,342.469666   C1067.447632,342.609650 1061.967529,344.310669 1056.861206,346.165558   C1045.251587,350.382782 1038.982910,359.199554 1038.754272,370.537964   C1038.526001,381.852905 1044.851929,391.885986 1056.027588,396.122559   C1061.189941,398.079468 1067.011475,398.297729 1073.504639,399.298523  z"
   id="path448" />
<path
   fill="#EB8C03"
   opacity="1.000000"
   stroke="none"
   d=" M454.856445,376.153503   C445.735413,339.893250 444.069794,304.114227 460.195801,269.831848   C473.999268,240.486938 498.715118,225.753540 530.666626,223.037094   C546.415588,221.698166 561.963806,223.164810 576.825317,229.014847   C599.976379,238.127930 615.749817,254.801987 623.135376,278.239838   C633.869751,312.304962 634.684509,346.995636 621.880859,380.618195   C609.405273,413.379242 584.083191,430.648773 549.322937,434.057312   C533.713013,435.588013 518.362854,434.097107 503.604340,428.617737   C478.756592,419.392548 463.239258,401.307953 454.856445,376.153503  M492.364746,293.022034   C486.399872,315.500061 485.979767,338.199524 491.441467,360.686279   C496.197937,380.269592 507.882843,393.871979 528.738159,397.736847   C558.555542,403.262573 581.701538,388.134460 588.130554,358.489716   C592.523499,338.233521 592.515015,317.826813 587.960266,297.582397   C585.348206,285.972687 580.099792,275.636902 570.418396,268.162292   C543.408447,247.308990 504.030701,259.556396 492.364746,293.022034  z"
   id="path450" />
<path
   fill="#EB8C03"
   opacity="1.000000"
   stroke="none"
   d=" M954.122314,261.892761   C932.171936,269.719788 922.640686,286.415527 920.046692,307.928406   C919.233398,314.673615 919.561829,321.569366 919.552795,328.396454   C919.511108,360.055481 919.534485,391.714600 919.534607,423.373688   C919.534607,425.186737 919.534607,426.999756 919.534607,429.229736   C906.314209,429.229736 893.453796,429.229736 880.305664,429.229736   C880.305664,362.235107 880.305664,295.343567 880.305664,227.842270   C889.010376,227.842270 897.614563,227.750839 906.211243,227.965576   C907.212524,227.990585 908.647339,229.532486 909.070679,230.672226   C911.325745,236.742889 913.322693,242.909439 915.584045,249.557404   C934.385681,227.852982 958.348755,220.573990 986.853210,224.302200   C985.963745,236.637054 985.098328,248.637085 984.321899,259.403748   C973.879883,260.245178 964.197693,261.025360 954.122314,261.892761  z"
   id="path452" />

<path
   fill="#FEF8F0"
   opacity="1.000000"
   stroke="none"
   d=" M507.616516,153.870300   C498.154755,155.160767 493.277283,152.442062 491.119751,144.964615   C496.272186,143.881531 506.719269,147.612885 509.273438,151.615738   C509.478455,151.937027 508.448090,153.046585 507.616516,153.870300  z"
   id="path456" />



</svg>
